<svg width="1385" height="1266" viewBox="0 0 1385 1266" fill="none" xmlns="http://www.w3.org/2000/svg">
<path d="M1118.75 403.322L1113.62 395.726C1070.3 330.502 992.02 291.18 909.474 295.94C898.856 296.556 888.301 297.884 877.896 299.915C802.829 314.601 737.54 366.482 710.477 432.921C694.55 471.99 690.118 516.984 659.897 547.975C620.591 588.361 553.834 589.627 495.165 587.956C436.497 586.285 369.684 587.703 330.544 628.215C306.057 653.535 298.274 689.692 300.24 723.671C305.476 813.658 374.061 894.125 461.316 934.106C548.571 974.086 651.255 977.681 746.626 960.084C880.362 935.447 1007.56 867.767 1084.01 763.221C1160.46 658.675 1180.02 516.148 1118.75 403.322Z" fill="#EBEBEB"/>
<path d="M1307.97 1206.57C1307.97 1206.95 1034.12 1207.23 696.378 1207.23C358.632 1207.23 84.7066 1206.95 84.7066 1206.57C84.7066 1206.19 358.521 1205.92 696.378 1205.92C1034.23 1205.92 1307.97 1206.22 1307.97 1206.57Z" fill="#263238"/>
<path d="M1087.56 1040.78C1090.05 1032.95 1095.34 1025.38 1103.51 1022.17C1111.68 1018.95 1121.91 1020.73 1130.6 1023.61C1139.3 1026.5 1147.89 1030.37 1157.14 1030.9C1166.39 1031.44 1176.83 1027.41 1179.6 1019.33C1182.21 1011.74 1177.19 1003.61 1170.91 998.089C1164.27 992.254 1156.14 988.041 1147.25 985.838C1138.37 983.634 1129.02 983.512 1120.06 985.483C1111.11 987.453 1102.85 991.452 1096.04 997.112C1089.22 1002.77 1084.08 1009.91 1081.08 1017.86" fill="#FF6584"/>
<g opacity="0.5">
<path opacity="0.5" d="M1087.56 1040.78C1090.05 1032.95 1095.34 1025.38 1103.51 1022.17C1111.68 1018.95 1121.91 1020.73 1130.6 1023.61C1139.3 1026.5 1147.89 1030.37 1157.14 1030.9C1166.39 1031.44 1176.83 1027.41 1179.6 1019.33C1182.21 1011.74 1177.19 1003.61 1170.91 998.089C1164.27 992.254 1156.14 988.041 1147.25 985.838C1138.37 983.634 1129.02 983.512 1120.06 985.483C1111.11 987.453 1102.85 991.452 1096.04 997.112C1089.22 1002.77 1084.08 1009.91 1081.08 1017.86" fill="black"/>
</g>
<path d="M1014.26 1074.76C1000.66 1062.98 1001.35 1042.45 1008.11 1026.5C1014.87 1010.55 1029.69 998.266 1046.2 990.189C1062.32 982.452 1080.14 978.155 1098.33 977.62C1116.53 977.085 1134.61 980.326 1151.24 987.1C1143.1 987.42 1135.17 989.559 1128.14 993.328C1121.12 997.098 1115.21 1002.38 1110.94 1008.72C1103.48 1020.02 1101.85 1033.74 1095.7 1045.67C1088.75 1059.1 1076.44 1069.59 1061.3 1075C1046.16 1080.41 1029.34 1080.32 1014.26 1074.76" fill="#FF6584"/>
<path d="M1007.73 1003.94C992.685 987.708 990.691 961.679 992.907 940.511C995.123 919.344 1000.5 898.05 996.84 877.059C994.679 864.627 989.389 852.752 987.616 840.269C985.843 827.787 988.364 813.658 998.945 805.606C1011.11 796.339 1030.27 798.517 1042.93 807.227C1055.59 815.937 1062.9 829.584 1068.28 843.207C1080.05 873.135 1084.37 906.304 1074.68 936.891C1064.98 967.477 1042.32 994.747 1009.03 1003.96" fill="#FF6584"/>
<path d="M1000.52 1136.99C1000.45 1136.38 1000.45 1135.76 1000.52 1135.15C1000.52 1133.91 1000.52 1132.11 1000.52 1129.78C1000.69 1125.12 1001.19 1118.38 1002.32 1110.13C1003.73 1100.45 1005.71 1090.85 1008.28 1081.37C1011.4 1069.73 1016.22 1058.53 1022.63 1048.07C1029.07 1037.63 1036.96 1027.99 1046.09 1019.38C1053.54 1012.36 1061.8 1006.09 1070.72 1000.67C1074.46 998.317 1078.08 996.519 1081.21 994.848C1084.34 993.177 1087.22 992.038 1089.52 991.025L1094.93 988.949C1095.55 988.694 1096.19 988.474 1096.84 988.29C1096.26 988.632 1095.65 988.92 1095.01 989.151L1089.72 991.43C1087.47 992.493 1084.7 993.81 1081.55 995.405C1078.39 997 1074.9 998.95 1071.19 1001.36C1051.61 1013.58 1035.36 1029.75 1023.71 1048.63C1009.86 1070.71 1006.12 1093.95 1003.38 1110.23C1002.13 1118.46 1001.49 1125.17 1001.16 1129.8L1000.83 1135.15C1000.61 1136.36 1000.55 1136.99 1000.52 1136.99Z" fill="#263238"/>
<path d="M870.86 939.954C843.16 955.298 843.16 969.25 847.786 982.416C852.412 995.582 869.503 1004.75 883.63 999.811C891.635 997.026 897.48 990.67 902.383 984.29C907.286 977.909 911.995 971.073 919.003 966.566C926.011 962.059 935.983 960.21 942.963 964.768" fill="#FF6584"/>
<g opacity="0.5">
<path opacity="0.5" d="M870.86 939.954C843.16 955.298 843.16 969.25 847.786 982.416C852.412 995.582 869.503 1004.75 883.63 999.811C891.635 997.026 897.48 990.67 902.383 984.29C907.286 977.909 911.995 971.073 919.003 966.566C926.011 962.059 935.983 960.21 942.963 964.768" fill="black"/>
</g>
<path d="M850.03 956.767C857.315 947.576 875.265 944.917 886.622 949.5C897.979 954.083 906.261 963.173 913.712 972.288C921.163 981.403 928.393 990.949 938.642 997.253C948.891 1003.56 963.323 1005.86 973.6 999.507C976.87 997.269 979.609 994.448 981.651 991.214C983.694 987.981 984.997 984.402 985.483 980.694C986.378 973.279 985.825 965.777 983.849 958.539C981.383 947.88 977.367 936.739 968.032 929.978C957.644 922.382 943.102 922.053 929.917 922.382C914.682 922.838 899.225 923.876 884.932 928.712C870.639 933.548 856.041 943.904 849.975 956.741" fill="#FF6584"/>
<path d="M977.394 1116.61C977.394 1116.61 977.394 1116.43 977.394 1116.06C977.394 1115.68 977.394 1115.09 977.394 1114.43C977.394 1112.89 977.256 1110.79 977.145 1108.1C976.979 1102.53 976.73 1094.63 976.425 1084.91C976.12 1075.19 975.649 1063.44 974.874 1050.53C974.098 1037.61 973.046 1023.36 970.885 1008.57C969.988 1001.37 968.451 994.249 966.287 987.278C964.066 980.834 961.21 974.589 957.755 968.617C954.655 963.209 951.06 958.05 947.008 953.197C943.446 948.989 939.518 945.052 935.263 941.423C929.062 936.185 922.053 931.808 914.46 928.434C913.103 927.877 911.912 927.32 910.831 926.915L908.061 925.953L906.399 925.345L905.845 925.092C906.057 925.108 906.263 925.159 906.455 925.244L908.145 925.75L910.915 926.611C912.023 926.965 913.214 927.497 914.599 928.054C922.332 931.254 929.479 935.524 935.789 940.714C940.125 944.34 944.128 948.287 947.755 952.513C951.945 957.376 955.653 962.57 958.835 968.034C962.358 974.046 965.261 980.344 967.506 986.847C969.703 993.876 971.269 1001.06 972.187 1008.32C974.32 1023.18 975.345 1037.41 976.065 1050.35C976.785 1063.29 977.145 1074.99 977.367 1084.78C977.588 1094.58 977.671 1102.51 977.699 1108V1114.31C977.699 1114.99 977.699 1115.52 977.699 1115.95C977.637 1116.19 977.534 1116.41 977.394 1116.61V1116.61Z" fill="#263238"/>
<path d="M987.394 1128.13C986.075 1124.57 985.057 1120.92 984.347 1117.22C982.433 1107.1 982.004 1096.78 983.073 1086.56C984.778 1071.4 988.337 1056.47 993.682 1042.04C999.388 1025.69 1007.14 1008.19 1013.76 989.404C1020.14 971.768 1024.14 953.487 1025.68 934.966C1026.96 919.846 1027.26 904.669 1026.56 889.517C1026.09 876.578 1025.34 866.096 1024.87 858.88L1024.35 850.524C1024.35 849.638 1024.35 848.904 1024.35 848.372C1024.31 848.12 1024.31 847.864 1024.35 847.612C1024.35 847.612 1024.35 847.865 1024.35 848.347C1024.35 848.828 1024.48 849.613 1024.6 850.524C1024.76 852.499 1025.01 855.284 1025.34 858.829C1025.98 866.071 1026.87 876.553 1027.45 889.492C1028.26 904.681 1028.06 919.901 1026.84 935.068C1026.08 944.031 1024.77 952.949 1022.93 961.78C1020.89 971.246 1018.21 980.589 1014.93 989.759C1008.31 1008.62 1000.52 1026.09 994.762 1042.4C989.408 1056.74 985.785 1071.57 983.959 1086.63C982.814 1096.8 983.112 1107.07 984.846 1117.17C985.511 1120.71 986.148 1123.47 986.702 1125.32C986.923 1126.21 987.117 1126.89 987.256 1127.42C987.331 1127.65 987.377 1127.89 987.394 1128.13V1128.13Z" fill="#263238"/>
<path d="M1056.37 1139.63H925.762L922.798 1116.64H1056.37V1139.63Z" fill="#455A64"/>
<path d="M939.778 1136.99L956.121 1205.92H1027.06L1042.35 1136.99H939.778Z" fill="#455A64"/>
<path d="M1056.34 1139.63C1056.34 1139.93 1027.64 1140.11 992.242 1140.03C956.841 1139.96 928.116 1139.6 928.116 1139.3C928.116 1138.99 956.813 1138.79 992.242 1138.89C1027.67 1138.99 1056.34 1139.4 1056.34 1139.63Z" fill="#455A64"/>
<path d="M1033.93 1173.63C1030.38 1171.2 1026.52 1169.17 1022.43 1167.61C1017.97 1166.02 1013.24 1165.16 1008.45 1165.07C1002.58 1165.09 996.762 1166.07 991.272 1167.96C985.317 1169.81 979.749 1171.94 974.347 1173.02C969.539 1173.97 964.584 1174.1 959.722 1173.43C956.44 1173 953.258 1172.07 950.304 1170.7C949.519 1170.3 948.761 1169.86 948.032 1169.38C947.562 1169.05 947.312 1168.85 947.34 1168.82C947.368 1168.8 948.448 1169.4 950.525 1170.29C953.483 1171.49 956.62 1172.27 959.833 1172.62C964.582 1173.18 969.403 1172.97 974.07 1171.99C979.306 1170.8 984.873 1168.64 990.857 1166.77C996.489 1164.85 1002.46 1163.88 1008.47 1163.94C1013.39 1164.08 1018.23 1165.05 1022.77 1166.8C1025.81 1167.95 1028.67 1169.48 1031.27 1171.33C1031.98 1171.83 1032.67 1172.36 1033.32 1172.92C1033.76 1173.4 1033.96 1173.61 1033.93 1173.63Z" fill="#263238"/>
<path d="M1032.96 1178.24C1029.52 1175.89 1025.8 1173.89 1021.88 1172.29C1017.59 1170.7 1013.02 1169.85 1008.39 1169.76C1002.72 1169.77 997.092 1170.7 991.771 1172.49C986.009 1174.24 980.691 1176.29 975.456 1177.56C970.89 1178.77 966.13 1179.26 961.384 1179C958.182 1178.83 955.052 1178.07 952.188 1176.75C951.413 1176.38 950.672 1175.96 949.972 1175.48C949.501 1175.15 949.279 1174.97 949.307 1174.92C949.334 1174.87 950.387 1175.51 952.381 1176.34C955.251 1177.46 958.321 1178.09 961.439 1178.19C966.078 1178.33 970.709 1177.77 975.151 1176.54C980.192 1175.25 985.538 1173.2 991.355 1171.48C996.82 1169.65 1002.6 1168.75 1008.42 1168.8C1013.19 1168.92 1017.89 1169.88 1022.27 1171.63C1025.19 1172.81 1027.93 1174.33 1030.44 1176.14C1031.12 1176.63 1031.76 1177.16 1032.38 1177.71C1032.77 1178.01 1032.99 1178.22 1032.96 1178.24Z" fill="white"/>
<path d="M1035.23 1169.08C1031.58 1166.55 1027.62 1164.42 1023.43 1162.72C1018.88 1160.92 1014.03 1159.85 1009.08 1159.55C1003.03 1159.44 997.002 1160.41 991.355 1162.42C985.627 1164.47 979.772 1166.22 973.821 1167.66C968.825 1168.43 963.721 1168.43 958.725 1167.66C955.358 1167.16 952.091 1166.22 949.03 1164.85C948.207 1164.46 947.42 1164.01 946.675 1163.5C946.149 1163.15 945.9 1162.97 945.927 1162.92C945.955 1162.87 947.063 1163.56 949.224 1164.44C952.297 1165.68 955.54 1166.53 958.863 1166.97C963.757 1167.63 968.736 1167.54 973.6 1166.72C979.476 1165.24 985.263 1163.48 990.94 1161.45C996.743 1159.39 1002.94 1158.43 1009.17 1158.62C1014.23 1158.97 1019.18 1160.14 1023.79 1162.09C1026.9 1163.35 1029.82 1164.96 1032.49 1166.87C1033.43 1167.56 1034.12 1168.11 1034.59 1168.52C1035.07 1168.92 1035.26 1169.05 1035.23 1169.08Z" fill="white"/>
<path d="M1057.5 1139.73C1057.5 1140.03 1028.14 1140.29 991.909 1140.29C955.678 1140.29 926.288 1140.03 926.288 1139.73C926.288 1139.43 955.65 1139.15 991.909 1139.15C1028.17 1139.15 1057.5 1139.4 1057.5 1139.73Z" fill="#263238"/>
<path d="M486.274 669.663L468.906 662.067C459.238 662.928 449.211 663.89 440.818 668.372C432.425 672.854 426.081 681.868 428.436 690.476C430.43 697.667 437.965 703.643 436.746 710.986C435.721 717.645 428.214 721.468 421.677 724.532C415.14 727.596 407.827 732.128 407.966 738.888C408.105 740.827 408.764 742.705 409.885 744.357C411.006 746.008 412.553 747.382 414.392 748.358C418.104 750.281 422.286 751.317 426.552 751.371C447.189 752.384 467.161 740.813 477.714 724.582C488.268 708.352 490.29 688.198 486.274 669.663Z" fill="#FF6584"/>
<g opacity="0.7">
<path opacity="0.7" d="M486.274 669.663L468.906 662.067C459.238 662.928 449.211 663.89 440.818 668.372C432.425 672.854 426.081 681.868 428.436 690.476C430.43 697.667 437.965 703.643 436.746 710.986C435.721 717.645 428.214 721.468 421.677 724.532C415.14 727.596 407.827 732.128 407.966 738.888C408.105 740.827 408.764 742.705 409.885 744.357C411.006 746.008 412.553 747.382 414.392 748.358C418.104 750.281 422.286 751.317 426.552 751.371C447.189 752.384 467.161 740.813 477.714 724.582C488.268 708.352 490.29 688.198 486.274 669.663Z" fill="white"/>
</g>
<path d="M439.017 656.725L497.187 695.414C497.187 695.414 512.616 677.69 507.132 656.953L477.77 638.064C477.77 638.064 459.959 635.532 439.017 656.725Z" fill="#455A64"/>
<path d="M463.255 631.911L514.029 664.321L701.696 433.175C701.696 433.175 714.521 411.349 695.381 383.471C695.381 383.471 656.601 380.256 635.216 403.576C613.832 426.895 463.255 631.911 463.255 631.911Z" fill="#E0E0E0"/>
<path d="M463.283 631.911C463.283 631.911 463.56 631.43 464.252 630.468L467.271 626.24L479.016 610.06L522.81 550.482C541.424 525.289 563.695 495.209 588.874 461.862C601.505 445.176 614.746 427.63 629.122 409.728L634.662 403.094C640.88 396.581 648.704 391.513 657.487 388.308C663.426 386.144 669.615 384.607 675.935 383.725C682.345 382.796 688.846 382.499 695.325 382.838H695.658L695.852 383.117C701.747 391.494 705.339 401.049 706.322 410.969C707.041 418.703 705.622 426.478 702.195 433.58V433.58L514.251 664.523L514.029 664.802L513.724 664.599L476.44 640.419L466.662 634.063L464.197 632.443L463.421 631.911L464.307 632.443L466.884 634.038L476.8 640.267L514.389 664.042H513.863L701.253 432.719C704.548 425.843 705.91 418.322 705.214 410.842C704.228 401.159 700.713 391.833 694.965 383.649L695.519 383.953C682.848 383.282 670.167 385.122 658.346 389.346C652.609 391.422 647.27 394.319 642.529 397.929C640.198 399.714 638.022 401.661 636.02 403.753C634.164 405.956 632.28 408.133 630.48 410.311C616.131 428.035 602.78 445.759 590.204 462.343C564.942 495.69 542.588 525.643 523.862 550.963L479.709 610.313L467.742 626.341L464.391 630.468L463.283 631.911Z" fill="#263238"/>
<path d="M465.748 628.544L435.693 628.999L463.338 596.21L490.429 595.045L465.748 628.544Z" fill="#455A64"/>
<path d="M695.27 383.471L694.467 383.725C693.648 383.903 692.856 384.175 692.112 384.535C689.177 385.848 686.394 387.425 683.802 389.244C674.24 395.94 665.181 403.215 656.684 411.02V410.69C656.516 411.203 656.284 411.696 655.991 412.159L655.216 413.425L653.609 415.957L650.147 421.021L642.64 431.782C637.322 439.201 631.56 447.177 625.632 455.608C613.5 472.421 599.982 491.056 585.606 510.401C571.756 529.163 558.293 546.861 546.161 563.016L513.78 605.882L491.841 634.696L485.83 642.495L484.224 644.521C484.049 644.753 483.854 644.974 483.642 645.179C483.758 644.914 483.916 644.666 484.113 644.445L485.581 642.343L491.398 634.418C496.522 627.48 503.863 617.555 512.949 605.351C531.258 580.79 556.521 547.115 584.415 509.666C598.763 490.246 612.336 471.686 624.524 454.95C636.712 438.213 647.903 423.047 656.49 410.69L656.324 410.361C664.918 402.605 674.1 395.413 683.802 388.839C686.386 387.06 689.172 385.541 692.112 384.307C692.884 383.967 693.705 383.728 694.55 383.598L695.27 383.471Z" fill="#263238"/>
<path d="M607.655 485.106C607.655 484.954 608.209 484.473 609.178 485.106C609.473 485.279 609.706 485.527 609.848 485.819C609.991 486.112 610.037 486.436 609.982 486.752C609.91 487.145 609.701 487.507 609.386 487.783C609.07 488.059 608.666 488.234 608.233 488.283C607.799 488.331 607.361 488.25 606.982 488.052C606.603 487.853 606.305 487.548 606.131 487.182C605.991 486.897 605.943 486.581 605.992 486.272C606.041 485.962 606.185 485.672 606.408 485.435C607.184 484.675 607.96 484.929 607.904 485.106C607.849 485.283 607.461 485.46 607.267 485.941C607.199 486.049 607.163 486.171 607.163 486.296C607.163 486.42 607.199 486.543 607.267 486.65C607.341 486.764 607.45 486.855 607.58 486.914C607.71 486.972 607.856 486.994 608 486.978C608.144 486.962 608.279 486.908 608.39 486.823C608.501 486.738 608.582 486.625 608.624 486.498C608.663 486.387 608.67 486.268 608.646 486.153C608.621 486.039 608.567 485.931 608.486 485.84C608.209 485.308 607.71 485.283 607.655 485.106Z" fill="#263238"/>
<path d="M581.894 518.402C581.894 518.275 582.448 517.794 583.445 518.402C583.74 518.574 583.971 518.822 584.11 519.116C584.248 519.409 584.287 519.734 584.221 520.047C584.145 520.439 583.933 520.799 583.615 521.071C583.298 521.344 582.893 521.516 582.461 521.562C582.028 521.607 581.591 521.524 581.214 521.324C580.838 521.124 580.542 520.819 580.37 520.453C580.234 520.165 580.19 519.848 580.244 519.538C580.298 519.229 580.448 518.94 580.675 518.706C581.423 517.946 582.199 518.224 582.171 518.376C582.143 518.528 581.7 518.731 581.506 519.237C581.445 519.343 581.414 519.46 581.414 519.579C581.414 519.698 581.445 519.815 581.506 519.921C581.589 520.032 581.7 520.123 581.831 520.185C581.962 520.246 582.107 520.278 582.254 520.275C582.394 520.244 582.523 520.182 582.629 520.093C582.736 520.005 582.816 519.893 582.863 519.769C582.901 519.657 582.909 519.539 582.885 519.424C582.86 519.309 582.806 519.201 582.725 519.111C582.448 518.63 581.949 518.579 581.894 518.402Z" fill="#263238"/>
<path d="M552.477 557.8C552.477 557.673 553.031 557.192 554 557.8C554.297 557.97 554.532 558.218 554.675 558.511C554.818 558.804 554.863 559.129 554.803 559.445C554.727 559.837 554.515 560.197 554.198 560.469C553.881 560.742 553.476 560.914 553.043 560.96C552.611 561.005 552.174 560.922 551.797 560.722C551.42 560.522 551.124 560.217 550.953 559.851C550.819 559.564 550.774 559.25 550.823 558.941C550.872 558.633 551.013 558.343 551.23 558.103C552.006 557.344 552.781 557.622 552.726 557.774C552.67 557.926 552.283 558.129 552.089 558.635C552.02 558.738 551.984 558.856 551.984 558.977C551.984 559.098 552.02 559.216 552.089 559.319C552.17 559.432 552.281 559.524 552.412 559.586C552.543 559.648 552.689 559.678 552.837 559.673C552.976 559.642 553.106 559.58 553.212 559.491C553.319 559.403 553.399 559.291 553.446 559.167C553.504 559.065 553.535 558.952 553.535 558.838C553.535 558.723 553.504 558.61 553.446 558.509C553.031 558.028 552.532 557.977 552.477 557.8Z" fill="#263238"/>
<path d="M522.838 598.134C522.838 598.134 523.392 597.527 524.361 598.134C524.658 598.305 524.893 598.553 525.036 598.846C525.179 599.139 525.224 599.464 525.164 599.78C525.093 600.174 524.883 600.535 524.568 600.811C524.253 601.087 523.848 601.263 523.415 601.311C522.982 601.359 522.543 601.278 522.164 601.08C521.786 600.882 521.487 600.577 521.314 600.211C521.175 599.921 521.127 599.601 521.176 599.288C521.225 598.975 521.369 598.681 521.591 598.438C522.367 597.679 523.142 597.957 523.087 598.109C523.031 598.261 522.644 598.463 522.45 598.97C522.381 599.073 522.345 599.191 522.345 599.312C522.345 599.432 522.381 599.551 522.45 599.654C522.531 599.766 522.642 599.858 522.773 599.92C522.904 599.982 523.05 600.013 523.198 600.008C523.338 599.977 523.467 599.914 523.573 599.826C523.68 599.737 523.76 599.626 523.807 599.502C523.845 599.39 523.852 599.271 523.828 599.157C523.804 599.042 523.749 598.934 523.669 598.843C523.53 598.362 522.893 598.312 522.838 598.134Z" fill="#263238"/>
<path d="M495.359 636.038C495.359 636.038 495.913 635.431 496.883 636.038C497.18 636.209 497.415 636.457 497.558 636.75C497.701 637.043 497.745 637.368 497.686 637.684C497.601 638.073 497.389 638.43 497.077 638.706C496.766 638.982 496.369 639.164 495.941 639.229C495.503 639.267 495.064 639.177 494.685 638.972C494.307 638.768 494.009 638.458 493.836 638.089C493.688 637.805 493.636 637.488 493.686 637.178C493.735 636.867 493.883 636.576 494.113 636.342C494.888 635.583 495.664 635.861 495.608 636.013C495.553 636.165 495.165 636.368 494.971 636.874C494.903 636.977 494.867 637.095 494.867 637.216C494.867 637.336 494.903 637.455 494.971 637.558C495.052 637.67 495.163 637.762 495.294 637.824C495.425 637.886 495.572 637.917 495.719 637.912C495.859 637.881 495.988 637.818 496.095 637.73C496.201 637.642 496.282 637.53 496.329 637.406C496.387 637.304 496.417 637.191 496.417 637.076C496.417 636.962 496.387 636.849 496.329 636.747C495.83 636.266 495.414 636.216 495.359 636.038Z" fill="#263238"/>
<path d="M632.225 452.291C632.225 452.139 632.779 451.658 633.776 452.291C634.068 452.465 634.297 452.714 634.435 453.007C634.573 453.3 634.614 453.623 634.552 453.937C634.479 454.331 634.27 454.693 633.956 454.971C633.642 455.249 633.239 455.428 632.806 455.481C632.373 455.518 631.937 455.43 631.56 455.23C631.183 455.031 630.883 454.729 630.701 454.367C630.565 454.08 630.521 453.763 630.575 453.453C630.629 453.144 630.779 452.855 631.006 452.62C631.754 451.861 632.557 452.114 632.502 452.291C632.446 452.468 632.031 452.646 631.837 453.127C631.782 453.238 631.753 453.359 631.753 453.481C631.753 453.603 631.782 453.724 631.837 453.836C631.921 453.944 632.034 454.031 632.165 454.088C632.295 454.146 632.44 454.172 632.585 454.165C632.723 454.138 632.851 454.08 632.958 453.996C633.064 453.912 633.146 453.805 633.194 453.684C633.241 453.573 633.253 453.453 633.228 453.336C633.204 453.22 633.144 453.112 633.056 453.025C632.779 452.494 632.28 452.468 632.225 452.291Z" fill="#263238"/>
<path d="M658.484 416.742C658.346 416.615 659.038 416.134 660.008 416.742C660.303 416.914 660.534 417.162 660.672 417.456C660.811 417.749 660.849 418.074 660.784 418.388C660.711 418.782 660.502 419.144 660.188 419.422C659.874 419.7 659.471 419.878 659.038 419.932C658.608 419.967 658.177 419.878 657.805 419.678C657.433 419.479 657.138 419.178 656.961 418.818C656.815 418.53 656.764 418.209 656.813 417.894C656.862 417.58 657.01 417.285 657.238 417.046C658.014 416.286 658.789 416.565 658.734 416.717C658.678 416.868 658.291 417.071 658.097 417.577C658.028 417.68 657.992 417.799 657.992 417.919C657.992 418.04 658.028 418.158 658.097 418.261C658.173 418.372 658.28 418.463 658.406 418.525C658.532 418.587 658.674 418.618 658.817 418.616C658.962 418.588 659.097 418.528 659.208 418.439C659.32 418.35 659.404 418.237 659.454 418.109C659.492 417.998 659.499 417.879 659.475 417.764C659.451 417.649 659.396 417.542 659.315 417.451C659.011 416.97 658.54 416.919 658.484 416.742Z" fill="#263238"/>
<path d="M414.447 700.984C413.518 699.963 412.374 699.122 411.082 698.513C409.791 697.903 408.379 697.537 406.93 697.435C405.48 697.334 404.024 697.499 402.646 697.922C401.268 698.344 399.997 699.015 398.908 699.895L399.268 699.718C397.627 701.068 396.49 702.854 396.018 704.826C395.546 706.797 395.762 708.854 396.636 710.707C397.24 711.935 398.122 713.033 399.223 713.928C400.324 714.823 401.62 715.494 403.025 715.899C404.431 716.303 405.914 716.431 407.377 716.275C408.84 716.118 410.251 715.68 411.516 714.989C412.781 714.299 413.871 713.371 414.716 712.268C415.561 711.165 416.141 709.911 416.418 708.588C416.695 707.265 416.663 705.904 416.323 704.593C415.983 703.283 415.344 702.053 414.447 700.984V700.984Z" fill="#FF6584"/>
<g opacity="0.7">
<path opacity="0.7" d="M414.447 700.984C413.518 699.963 412.374 699.122 411.082 698.513C409.791 697.903 408.379 697.537 406.93 697.435C405.48 697.334 404.024 697.499 402.646 697.922C401.268 698.344 399.997 699.015 398.908 699.895L399.268 699.718C397.627 701.068 396.49 702.854 396.018 704.826C395.546 706.797 395.762 708.854 396.636 710.707C397.24 711.935 398.122 713.033 399.223 713.928C400.324 714.823 401.62 715.494 403.025 715.899C404.431 716.303 405.914 716.431 407.377 716.275C408.84 716.118 410.251 715.68 411.516 714.989C412.781 714.299 413.871 713.371 414.716 712.268C415.561 711.165 416.141 709.911 416.418 708.588C416.695 707.265 416.663 705.904 416.323 704.593C415.983 703.283 415.344 702.053 414.447 700.984V700.984Z" fill="white"/>
</g>
<path d="M697.375 438.163C697.181 438.163 694.605 435.428 689.37 431.579C682.669 426.554 675.628 421.92 668.29 417.704C661.013 413.406 653.371 409.647 645.438 406.462C643.914 405.88 642.501 405.424 641.283 404.993L638.042 404.133C637.097 404.052 636.166 403.865 635.272 403.575C636.247 403.464 637.233 403.464 638.208 403.575L641.56 404.234C642.834 404.614 644.33 404.993 645.881 405.525C653.991 408.499 661.766 412.188 669.094 416.539C676.509 420.765 683.532 425.541 690.09 430.82C692.045 432.406 693.895 434.097 695.63 435.884C696.341 436.554 696.93 437.323 697.375 438.163V438.163Z" fill="#263238"/>
<path d="M620.896 875.211L533.918 886.96L549.374 985.936C559.623 984.011 572.393 930.105 572.393 930.105L628.458 924.661L620.896 875.211Z" fill="#455A64"/>
<path d="M572.31 898.86C571.847 897.934 571.021 897.202 569.994 896.808C568.968 896.413 567.817 896.387 566.77 896.733C565.758 897.121 564.948 897.851 564.51 898.771C564.071 899.69 564.038 900.729 564.415 901.671C564.912 902.634 565.781 903.395 566.855 903.806C567.93 904.218 569.133 904.251 570.232 903.899C571.24 903.389 571.992 902.544 572.333 901.538C572.674 900.533 572.576 899.446 572.06 898.506" fill="white"/>
<path d="M533.918 886.96L542.726 886.099L554.249 981.327C554.249 981.327 552.837 986.011 549.374 985.935L533.918 886.96Z" fill="white"/>
<path d="M573.196 931.776C572.67 931.776 572.06 929.421 569.983 927.269C567.905 925.117 565.496 924.155 565.634 923.674C565.772 923.192 568.93 923.522 571.396 926.206C573.861 928.889 573.695 931.776 573.196 931.776Z" fill="#263238"/>
<path d="M570.121 942.638C569.623 942.816 568.404 940.841 565.911 939.473C563.418 938.106 560.98 937.979 560.925 937.473C560.87 936.967 563.695 936.308 566.88 938.03C570.066 939.752 570.62 942.562 570.121 942.638Z" fill="#263238"/>
<path d="M557.435 950.31C557.269 949.88 559.789 948.867 562.975 949.728C566.16 950.589 567.573 952.69 567.157 952.969C566.742 953.247 564.997 952.032 562.448 951.348C559.9 950.665 557.573 950.766 557.435 950.31Z" fill="#263238"/>
<path d="M585.827 929.092C585.301 928.965 585.689 926.56 585.052 924.028C584.415 921.496 583.168 919.318 583.584 918.964C583.999 918.61 586.187 920.458 586.88 923.648C587.572 926.839 586.271 929.244 585.827 929.092Z" fill="#263238"/>
<path d="M598.32 925.066C597.564 923.474 597.305 921.721 597.572 920.002C597.652 918.168 597.968 916.35 598.514 914.584C598.839 913.545 599.246 912.53 599.733 911.545C599.973 910.941 600.319 910.377 600.758 909.874C601.087 909.514 601.536 909.263 602.036 909.158C602.536 909.053 603.06 909.1 603.528 909.292C603.938 909.477 604.292 909.751 604.558 910.091C604.823 910.432 604.993 910.827 605.051 911.241C605.147 911.871 605.147 912.511 605.051 913.14C604.927 914.238 604.695 915.322 604.359 916.381C603.798 918.183 602.929 919.892 601.782 921.445C599.816 923.977 597.96 925.091 597.849 924.94C597.738 924.788 599.123 923.395 600.619 920.812C601.514 919.312 602.194 917.712 602.641 916.052C602.906 915.071 603.082 914.072 603.167 913.064C603.306 911.976 603.167 911.09 602.613 910.887C602.059 910.684 602.336 910.887 602.032 911.064C601.72 911.444 601.468 911.861 601.284 912.305C600.797 913.223 600.381 914.17 600.037 915.141C599.441 916.787 599.023 918.483 598.791 920.205C598.766 921.834 598.608 923.459 598.32 925.066V925.066Z" fill="#263238"/>
<path d="M597.434 924.535C598.837 923.396 600.605 922.704 602.475 922.56C604.472 922.237 606.516 922.237 608.514 922.56C609.707 922.721 610.877 923.002 612.004 923.395C612.761 923.564 613.458 923.909 614.026 924.398C614.593 924.886 615.013 925.5 615.245 926.18C615.303 926.624 615.223 927.074 615.012 927.478C614.801 927.882 614.468 928.222 614.054 928.459C613.465 928.804 612.82 929.06 612.142 929.219C610.96 929.56 609.725 929.723 608.486 929.7C606.416 929.701 604.379 929.231 602.558 928.333C599.456 926.763 598.514 924.813 598.68 924.762C598.846 924.712 600.204 926.104 603.14 927.294C604.821 927.941 606.636 928.243 608.458 928.181C609.521 928.154 610.575 927.992 611.588 927.7C612.724 927.396 613.583 926.864 613.416 926.484C613.25 926.104 612.336 925.269 611.367 924.99C610.354 924.622 609.306 924.343 608.237 924.155C606.414 923.818 604.547 923.733 602.697 923.902C599.456 924.028 597.572 924.788 597.434 924.535Z" fill="#263238"/>
<path d="M368.41 976.947L302.872 1030.52L375.501 1105.27C382.897 1098.51 360.986 1047.03 360.986 1047.03L404.448 1014.12L368.41 976.947Z" fill="#455A64"/>
<path d="M342.067 1021.21C341.132 1020.68 340.017 1020.49 338.937 1020.67C337.857 1020.85 336.89 1021.4 336.223 1022.19C335.614 1023.03 335.378 1024.04 335.563 1025.03C335.749 1026.02 336.342 1026.91 337.22 1027.51C338.216 1028.06 339.4 1028.26 340.544 1028.06C341.689 1027.87 342.714 1027.29 343.425 1026.45C343.966 1025.51 344.09 1024.42 343.77 1023.41C343.449 1022.39 342.71 1021.53 341.707 1021" fill="white"/>
<path d="M302.872 1030.52L309.686 1025.46L376.72 1099.07C376.72 1099.07 378.354 1103.67 375.418 1105.37L302.872 1030.52Z" fill="white"/>
<path d="M362.593 1048.07C362.178 1048.37 360.239 1046.7 357.053 1045.94C353.868 1045.18 351.513 1045.61 351.264 1045.13C351.014 1044.65 354.034 1043.34 357.579 1044.32C361.125 1045.31 363.036 1047.84 362.593 1048.07Z" fill="#263238"/>
<path d="M366.665 1058.78C366.36 1059.19 364.144 1058.15 361.125 1058.3C358.106 1058.45 356.111 1059.52 355.779 1059.14C355.446 1058.76 357.469 1056.6 361.07 1056.6C364.671 1056.6 367.025 1058.38 366.665 1058.78Z" fill="#263238"/>
<path d="M360.737 1071.57C360.322 1071.31 361.817 1069.19 364.92 1068.35C368.022 1067.52 370.46 1068.5 370.46 1068.93C370.46 1069.36 368.105 1069.26 365.557 1069.97C363.008 1070.68 361.125 1071.9 360.737 1071.57Z" fill="#263238"/>
<path d="M371.595 1039.59C371.069 1039.74 369.989 1037.61 367.856 1035.66C365.723 1033.71 363.396 1032.7 363.563 1032.22C363.729 1031.74 366.637 1032.22 369.103 1034.47C371.568 1036.73 372.066 1039.51 371.595 1039.59Z" fill="#263238"/>
<path d="M379.49 1029.92C379.324 1030.07 377.662 1028.83 375.861 1026.17C374.191 1023.67 373.062 1020.9 372.537 1018.02C372.372 1017.39 372.325 1016.75 372.399 1016.12C372.448 1015.65 372.669 1015.2 373.025 1014.86C373.381 1014.51 373.853 1014.29 374.365 1014.22C374.821 1014.18 375.282 1014.23 375.71 1014.38C376.138 1014.53 376.522 1014.77 376.831 1015.08C377.297 1015.54 377.681 1016.07 377.966 1016.65C378.545 1017.61 379.009 1018.63 379.351 1019.69C379.965 1021.45 380.264 1023.3 380.238 1025.16C380.398 1026.86 379.983 1028.56 379.047 1030.04C378.77 1030.04 379.047 1028.14 379.047 1025.18C378.886 1023.45 378.486 1021.75 377.856 1020.12C377.485 1019.17 377.031 1018.24 376.498 1017.36C375.944 1016.4 375.307 1015.71 374.726 1015.81C374.144 1015.91 374.421 1015.81 374.338 1016.27C374.247 1016.74 374.247 1017.22 374.338 1017.69C374.495 1018.69 374.717 1019.67 375.003 1020.65C375.513 1022.32 376.19 1023.95 377.025 1025.51C377.944 1026.93 378.767 1028.4 379.49 1029.92V1029.92Z" fill="#263238"/>
<path d="M378.52 1029.92C378.327 1029.92 379.074 1027.94 381.512 1025.71C382.978 1024.43 384.662 1023.38 386.498 1022.6C387.592 1022.13 388.733 1021.77 389.905 1021.51C390.645 1021.28 391.437 1021.22 392.208 1021.34C392.979 1021.47 393.702 1021.77 394.31 1022.22C394.633 1022.56 394.839 1022.99 394.903 1023.44C394.967 1023.89 394.886 1024.34 394.67 1024.75C394.382 1025.33 394.009 1025.86 393.562 1026.35C392.77 1027.22 391.836 1027.98 390.792 1028.6C389.074 1029.67 387.095 1030.33 385.03 1030.52C381.512 1030.8 379.49 1029.66 379.656 1029.51C381.394 1029.54 383.133 1029.49 384.864 1029.33C386.663 1029.04 388.367 1028.39 389.85 1027.41C390.714 1026.84 391.488 1026.17 392.149 1025.41C392.925 1024.57 393.34 1023.71 392.952 1023.49C392.562 1023.28 392.126 1023.15 391.675 1023.12C391.225 1023.08 390.772 1023.14 390.348 1023.28C389.279 1023.48 388.231 1023.77 387.218 1024.14C385.495 1024.77 383.88 1025.62 382.426 1026.68C379.905 1028.47 378.77 1030.07 378.52 1029.92Z" fill="#263238"/>
<path d="M651.199 635.886C649.039 636.671 628.762 640.014 611.062 673.031C593.362 706.048 596.187 725.975 596.187 725.975L508.877 839.738L331.126 991.405L387.412 1042.04L572.559 894.1C572.559 894.1 669.509 814.418 679.703 803.809C699.564 783.35 766.431 695.566 766.431 695.566L651.199 635.886Z" fill="#CFBAF0"/>
<path d="M683.11 765.753L718.815 845.536L588.431 875.92L597.434 934.156C597.434 934.156 801.001 908.836 812.109 899.645C823.216 890.454 830.474 882.149 830.751 872.755C831.028 863.361 766.154 676.348 766.154 676.348L692.722 728.558L683.11 765.753Z" fill="#CFBAF0"/>
<path d="M756.958 700.123C756.873 700.549 756.714 700.959 756.487 701.339C756.044 702.276 755.49 703.39 754.853 704.757C753.468 707.77 751.058 711.897 748.038 716.987C739.838 730.08 730.869 742.759 721.169 754.967C709.951 769.348 699.231 781.983 691.281 790.972C687.32 795.479 684.024 799.099 681.725 801.555L678.955 804.366C678.646 804.699 678.303 805.005 677.93 805.277C678.154 804.889 678.423 804.524 678.733 804.189L681.198 801.226L690.367 790.415C698.095 781.274 708.705 768.563 719.895 754.207C731.086 739.85 740.698 726.532 747.041 716.556C750.144 711.492 752.581 707.491 754.243 704.554L756.21 701.364C756.653 700.478 756.902 700.098 756.958 700.123Z" fill="#455A64"/>
<path d="M760.116 861.158C759.894 861.285 758.481 859.057 755.434 856.094C753.634 854.389 751.658 852.846 749.534 851.486C746.928 849.859 744.143 848.484 741.224 847.384C738.263 846.352 735.189 845.613 732.056 845.182C729.488 844.846 726.89 844.736 724.3 844.852C719.868 845.106 717.181 845.84 717.125 845.612C717.07 845.384 717.735 845.283 718.953 844.928C720.66 844.414 722.426 844.083 724.216 843.941C726.875 843.65 729.563 843.65 732.222 843.941C735.484 844.321 738.683 845.061 741.751 846.144C744.788 847.277 747.669 848.73 750.338 850.474C752.499 851.953 754.469 853.652 756.21 855.537C757.402 856.763 758.442 858.104 759.312 859.538C759.894 860.525 760.199 861.108 760.116 861.158Z" fill="#455A64"/>
<path d="M758.62 838.598C752.398 840.162 746.055 841.288 739.645 841.966C733.31 843.084 726.895 843.778 720.449 844.042C726.671 842.478 733.014 841.352 739.424 840.675C745.759 839.558 752.175 838.864 758.62 838.598V838.598Z" fill="#455A64"/>
<path d="M678.041 805.176C677.839 805.419 677.616 805.648 677.376 805.86L675.298 807.759L667.182 815.026C660.146 821.33 649.842 830.344 637.017 841.358C611.339 863.437 575.301 893.34 534.859 925.725C494.417 958.109 457.465 987.05 430.763 1008.04L399.129 1033.06L390.57 1039.69C389.601 1040.4 388.853 1040.98 388.299 1041.41L387.495 1041.97C387.495 1041.97 387.717 1041.72 388.188 1041.31L390.376 1039.49L398.686 1032.57C406.165 1026.57 416.857 1018.02 430.043 1007.41L533.862 924.788C574.276 892.429 610.425 862.652 636.352 840.751C649.26 829.812 659.675 820.925 666.822 814.747L675.132 807.657L677.32 805.834C677.764 805.429 678.013 805.176 678.041 805.176Z" fill="#455A64"/>
<path d="M1016.95 260.796L1031.52 238.008C1031.52 238.008 1038.92 215.22 1040.97 213.422C1043.02 211.625 1045.31 210.89 1046.84 211.979C1048.36 213.068 1070.6 218.714 1072.16 219.575C1073.71 220.436 1072.16 233.096 1072.16 233.096L1071.99 236.134C1071.99 236.134 1080.6 233.602 1083.98 236.134C1085.62 237.375 1082.96 243.123 1077.61 245.3C1070.12 248.512 1063.31 252.919 1057.5 258.315C1055.65 259.95 1053.21 260.913 1050.63 261.024C1049.19 261.024 1048.03 261.024 1048.47 260.72C1050.13 259.505 1034.62 278.444 1034.62 278.444L1016.95 260.796Z" fill="#B78876"/>
<path d="M1083.9 236.134C1082.61 235.602 1081.21 235.342 1079.8 235.375C1076.35 235.639 1072.95 236.347 1069.72 237.476C1066.36 238.686 1062.8 239.362 1059.19 239.477C1057.66 239.595 1056.12 239.258 1054.82 238.514C1054.82 238.312 1056.51 238.742 1059.16 238.514C1062.61 238.148 1065.99 237.382 1069.22 236.236C1072.6 235.044 1076.18 234.434 1079.8 234.438C1080.95 234.461 1082.06 234.757 1083.04 235.299C1083.76 235.704 1083.96 236.109 1083.9 236.134Z" fill="#AA6550"/>
<path d="M1054.23 223.955C1054.4 223.955 1054.84 224.842 1056.39 225.5C1057.49 225.852 1058.65 225.982 1059.8 225.881C1060.96 225.78 1062.07 225.452 1063.07 224.918L1064.29 224.361L1063.96 225.601C1063.4 227.723 1063.27 229.919 1063.57 232.083V232.539V233.248H1062.82C1061.55 233.222 1060.31 232.946 1059.16 232.438C1058.77 232.248 1058.34 232.133 1057.9 232.098C1057.46 232.063 1057.01 232.11 1056.59 232.235C1056.25 232.402 1055.97 232.642 1055.76 232.933C1055.55 233.225 1055.43 233.559 1055.4 233.906C1055.37 234.572 1055.56 235.23 1055.92 235.805C1056.57 236.696 1057.41 237.454 1058.39 238.033C1059.08 238.489 1059.47 238.768 1059.41 238.844C1059.36 238.92 1058.89 238.844 1058.08 238.464C1056.9 237.99 1055.87 237.25 1055.09 236.312C1054.49 235.586 1054.19 234.69 1054.23 233.78C1054.25 233.234 1054.42 232.701 1054.73 232.231C1055.03 231.761 1055.46 231.371 1055.98 231.096C1056.56 230.863 1057.18 230.742 1057.81 230.742C1058.44 230.742 1059.06 230.863 1059.64 231.096C1060.59 231.508 1061.63 231.74 1062.68 231.779L1062.05 232.539V232.058C1061.71 229.725 1061.9 227.353 1062.63 225.095L1063.51 225.804C1062.17 226.334 1060.74 226.643 1059.28 226.715C1058.1 226.744 1056.94 226.472 1055.92 225.93C1054.32 225.145 1054.12 223.955 1054.23 223.955Z" fill="#AA6550"/>
<path d="M1051.46 237.147C1051.1 236.919 1053.04 234.21 1054.23 230.488C1054.85 228.995 1055.02 227.375 1054.71 225.804C1054.4 224.664 1053.74 224.107 1053.85 223.955C1053.96 223.803 1054.98 224.158 1055.67 225.5C1056.37 227.224 1056.37 229.118 1055.67 230.842C1055.14 233.335 1053.64 235.57 1051.46 237.147V237.147Z" fill="#AA6550"/>
<path d="M813.577 274.14C821.077 269.971 829.557 267.497 838.313 266.923C842.687 266.678 847.061 267.394 851.071 269.011C855.08 270.627 858.608 273.098 861.359 276.216C865.348 281.28 866.899 287.964 872.051 291.889C879.253 297.307 889.918 294.927 899.087 296.447C900.97 296.776 903.103 297.485 903.629 299.156C903.731 299.906 903.655 300.667 903.407 301.388C903.158 302.109 902.743 302.773 902.189 303.334L892.937 315.994C894.755 317.06 896.814 317.734 898.959 317.967C901.104 318.199 903.279 317.983 905.319 317.336C903.486 326.289 898.246 334.362 890.527 340.124C891.003 339.978 891.508 339.924 892.008 339.967C892.508 340.01 892.992 340.148 893.431 340.372C893.869 340.596 894.251 340.901 894.552 341.269C894.854 341.636 895.068 342.056 895.181 342.504C895.544 344.339 895.211 346.232 894.239 347.871C891.766 353.106 888.092 357.795 883.467 361.62C878.841 365.446 873.372 368.32 867.427 370.048C861.482 371.776 855.201 372.318 849.008 371.637C842.815 370.957 836.853 369.069 831.526 366.102" fill="#263238"/>
<path d="M818.867 273.026C814.291 269.577 808.602 267.6 802.675 267.399C796.749 267.198 790.914 268.783 786.071 271.911C779.506 276.342 775.628 283.28 771.168 289.635C766.708 295.991 760.78 302.093 752.747 303.486C746.238 304.625 739.258 302.422 732.997 304.372C726.211 306.473 722.084 313.107 721.336 319.564C721.016 326.133 722.069 332.699 724.438 338.908C722.488 340.279 720.259 341.28 717.881 341.854C715.503 342.428 713.024 342.563 710.588 342.25C712.286 346.939 715.625 350.988 720.089 353.771C723.11 355.19 725.86 357.045 728.233 359.265C730.078 361.855 731.042 364.886 731.003 367.976C731.131 369.75 731.694 371.476 732.65 373.024C733.607 374.573 734.932 375.905 736.528 376.921C738.125 377.938 739.951 378.613 741.871 378.896C743.792 379.18 745.758 379.065 747.623 378.559C751.622 377.472 755.491 376.021 759.174 374.23C759.174 374.23 755.24 379.091 761.334 384.358C763.79 384.106 766.143 383.32 768.197 382.064C770.25 380.808 771.944 379.12 773.135 377.141" fill="#263238"/>
<path d="M867.73 325.083C869.015 313.802 865.613 302.491 858.198 293.396C850.783 284.301 839.898 278.087 827.704 275.988L825.183 275.532C797.76 272.317 779.45 291.813 776.68 316.981L758.26 432.238L820.474 442.796L827.51 405.474C827.51 405.474 854.351 406.259 859.586 382.459C862.107 370.913 865.21 346.884 867.73 325.083Z" fill="#B78876"/>
<path d="M853.936 340.757C853.766 341.646 853.221 342.439 852.418 342.965C851.615 343.49 850.618 343.707 849.642 343.567C849.164 343.517 848.702 343.381 848.282 343.166C847.862 342.951 847.494 342.662 847.197 342.315C846.901 341.969 846.683 341.572 846.555 341.148C846.428 340.724 846.395 340.281 846.457 339.845C846.62 338.951 847.162 338.152 847.966 337.621C848.77 337.09 849.77 336.87 850.75 337.009C851.231 337.059 851.696 337.196 852.117 337.413C852.539 337.629 852.909 337.921 853.206 338.27C853.503 338.619 853.72 339.019 853.846 339.446C853.971 339.873 854.001 340.319 853.936 340.757V340.757Z" fill="#263238"/>
<path d="M859.725 335.769C859.171 336.148 856.733 333.743 852.744 333.059C848.756 332.376 845.404 333.718 845.071 333.186C844.739 332.654 845.542 332.249 846.983 331.616C848.946 330.816 851.132 330.586 853.243 330.958C855.359 331.295 857.302 332.245 858.783 333.667C859.752 334.756 860.002 335.617 859.725 335.769Z" fill="#263238"/>
<path d="M817.87 338.503C817.316 338.858 814.906 336.477 810.89 335.794C806.873 335.11 803.577 336.427 803.217 335.794C802.857 335.161 803.688 334.832 805.156 334.199C807.109 333.396 809.286 333.166 811.388 333.54C813.503 333.883 815.443 334.832 816.928 336.25C817.898 337.465 818.147 338.326 817.87 338.503Z" fill="#263238"/>
<path d="M829.144 359.367C831.379 359.105 833.641 359.105 835.875 359.367C836.928 359.367 837.925 359.367 838.23 358.835C838.558 357.896 838.558 356.887 838.23 355.949C837.731 353.417 837.205 350.885 836.678 348.353C834.546 337.49 833.216 328.628 833.715 328.552C834.213 328.476 836.291 337.212 838.396 348.074C838.895 350.758 839.365 353.315 839.836 355.67C840.249 356.914 840.16 358.253 839.587 359.443C839.364 359.735 839.076 359.98 838.742 360.163C838.407 360.347 838.035 360.464 837.648 360.506C837.05 360.573 836.445 360.573 835.847 360.506C833.571 360.377 831.319 359.995 829.144 359.367V359.367Z" fill="#263238"/>
<path d="M816.818 359.873C817.482 359.873 816.679 363.924 819.809 367.469C822.939 371.014 827.676 371.292 827.593 371.875C827.51 372.457 826.402 372.457 824.435 372.179C821.882 371.765 819.569 370.547 817.898 368.735C816.299 366.992 815.504 364.75 815.682 362.481C815.848 360.683 816.541 359.797 816.818 359.873Z" fill="#263238"/>
<path d="M822.524 320.399C822.053 321.387 818.009 320.627 813.216 320.83C808.424 321.032 804.436 321.944 803.882 321.007C803.632 320.551 804.38 319.64 806.015 318.779C808.171 317.686 810.585 317.087 813.05 317.032C815.517 316.936 817.974 317.37 820.225 318.298C821.914 319.032 822.69 319.918 822.524 320.399Z" fill="#263238"/>
<path d="M862.301 321.564C861.248 322.248 858.035 320.83 853.991 320.121C849.947 319.412 846.346 319.462 845.681 318.475C845.404 317.994 846.096 317.234 847.758 316.703C850.037 316.05 852.463 315.954 854.794 316.424C857.129 316.818 859.308 317.77 861.11 319.184C862.439 320.374 862.744 321.311 862.301 321.564Z" fill="#263238"/>
<path d="M776.985 335.237C776.569 334.984 760.06 327.312 757.29 343.694C754.52 360.076 773.079 359.265 773.19 358.886C773.301 358.506 776.985 335.237 776.985 335.237Z" fill="#B78876"/>
<path d="M770.337 352.075C770.337 352.075 769.977 352.227 769.423 352.378C768.629 352.575 767.782 352.474 767.068 352.1C766.029 351.258 765.252 350.18 764.814 348.975C764.376 347.77 764.294 346.481 764.575 345.238C764.779 343.832 765.318 342.484 766.154 341.288C766.412 340.792 766.799 340.361 767.283 340.034C767.766 339.708 768.33 339.495 768.924 339.415C769.297 339.386 769.668 339.473 769.98 339.661C770.292 339.85 770.525 340.128 770.642 340.453C770.808 340.959 770.642 341.263 770.642 341.314C770.642 341.364 771.057 341.086 771.029 340.402C771.009 339.977 770.823 339.572 770.503 339.263C770.288 339.057 770.031 338.893 769.745 338.78C769.46 338.667 769.152 338.607 768.841 338.604C768.085 338.638 767.351 338.847 766.707 339.21C766.063 339.573 765.53 340.079 765.157 340.681C764.146 341.984 763.508 343.499 763.301 345.086C762.973 346.536 763.116 348.041 763.711 349.418C764.307 350.794 765.329 351.982 766.653 352.834C767.111 353.034 767.613 353.138 768.121 353.138C768.629 353.138 769.131 353.034 769.589 352.834C770.226 352.48 770.392 352.125 770.337 352.075Z" fill="#AA6550"/>
<path d="M803.438 288.648C808.894 288.45 814.248 290.039 818.535 293.13L821.305 295.13L866.955 307.79C878.838 304.372 873.353 294.092 864.046 289.534C853.16 284.192 841.526 274.595 829.421 272.342C817.316 270.088 795.128 273.456 784.215 284.445C780.455 288.112 777.51 292.411 775.545 297.105C772.034 308.657 770.126 320.566 769.866 332.553C770.447 336.329 771.8 339.971 773.855 343.289V343.289C777.954 343.972 780.087 341.238 780.198 337.44L782.414 322.779C787.122 320.515 790.894 316.91 793.158 312.51C795.423 308.11 796.056 303.155 794.962 298.396C794.962 298.396 794.962 298.548 794.962 298.396C794.581 297.225 794.514 295.986 794.768 294.786C795.022 293.586 795.59 292.46 796.422 291.503C797.254 290.546 798.326 289.787 799.548 289.29C800.769 288.793 802.104 288.573 803.438 288.648V288.648Z" fill="#263238"/>
<path d="M795.378 293.003C797.372 287.939 807.289 286.065 812.552 288.521C817.815 290.977 821.194 295.763 824.767 300.042C828.341 304.321 832.939 308.6 838.811 309.183C844.684 309.765 851.526 306.296 856.955 308.904C859.147 310.356 861.255 311.911 863.27 313.563C865.085 314.525 867.115 315.098 869.207 315.238C871.299 315.379 873.399 315.083 875.348 314.373C879.219 312.944 882.833 310.989 886.068 308.575C874.489 306.929 864.628 300.295 855.376 293.712C846.124 287.129 836.595 280.242 825.155 277.938C813.715 275.634 799.838 279.507 795.378 289.382" fill="#263238"/>
<path d="M732.582 359.291C732.582 359.291 733.136 359.569 734.216 359.797C735.824 360.074 737.486 359.784 738.87 358.987C739.941 358.358 740.827 357.497 741.45 356.482C742.073 355.467 742.414 354.327 742.443 353.163C742.524 350.017 741.641 346.912 739.895 344.2C737.733 340.809 736.04 337.186 734.853 333.414C734.165 331.183 734.004 328.844 734.382 326.552C734.759 324.26 735.666 322.068 737.042 320.121C738.692 318.063 741.008 316.531 743.662 315.74C746.349 314.976 749.159 314.634 751.972 314.728C757.512 314.728 763.467 315.664 768.98 314.196C771.663 313.472 774.003 311.948 775.628 309.866C777.144 307.754 778.154 305.372 778.592 302.878C779.644 297.966 779.201 292.952 780.115 288.218C780.498 285.883 781.284 283.618 782.442 281.508C783.578 279.483 785.304 277.783 787.428 276.596C789.352 275.62 791.47 275.004 793.657 274.782C795.845 274.56 798.058 274.738 800.17 275.304C803.627 276.191 806.819 277.784 809.505 279.963C811.51 281.564 813.364 283.317 815.045 285.205C816.43 286.749 817.427 288.015 818.092 288.851C818.455 289.273 818.779 289.722 819.061 290.193C818.618 289.846 818.219 289.455 817.87 289.028C817.039 288.116 815.959 286.977 814.602 285.559C812.914 283.732 811.061 282.038 809.062 280.495C806.425 278.468 803.333 276.999 800.004 276.191C798.027 275.681 795.96 275.533 793.921 275.755C791.882 275.977 789.911 276.563 788.12 277.482C786.221 278.751 784.645 280.381 783.502 282.261C782.359 284.141 781.676 286.225 781.5 288.37C780.669 292.927 781.14 297.94 780.06 303.106C779.62 305.817 778.543 308.408 776.902 310.702C775.102 313.029 772.496 314.733 769.506 315.538C763.467 317.133 757.54 316.12 752.027 316.12C749.359 316.018 746.69 316.326 744.133 317.032C741.744 317.732 739.653 319.095 738.15 320.931C736.873 322.737 736.026 324.768 735.664 326.892C735.301 329.016 735.431 331.186 736.044 333.262C737.159 336.973 738.769 340.544 740.837 343.896C742.594 346.776 743.438 350.047 743.274 353.341C743.198 354.602 742.785 355.828 742.07 356.909C741.355 357.991 740.361 358.896 739.175 359.544C738.424 359.942 737.594 360.201 736.734 360.305C735.874 360.409 734.999 360.357 734.161 360.152C733.567 359.985 733.025 359.689 732.582 359.291V359.291Z" fill="#455A64"/>
<path d="M887.646 299.105C887.646 299.105 887.453 299.333 886.954 299.637C886.232 300.094 885.462 300.485 884.655 300.802C881.653 301.975 878.375 302.437 875.126 302.144C870.247 301.801 865.652 299.911 862.135 296.801C860.11 294.924 858.534 292.682 857.509 290.218C856.52 287.667 855.344 285.18 853.991 282.774C852.539 280.592 850.509 278.78 848.088 277.506C845.667 276.231 842.934 275.535 840.141 275.482C837.863 275.429 835.601 275.835 833.513 276.671C831.426 277.507 829.566 278.752 828.064 280.318C825.968 282.472 824.526 285.091 823.881 287.914C823.466 289.914 823.549 291.053 823.41 291.053C823.272 291.053 823.41 290.775 823.244 290.243C823.144 289.402 823.144 288.553 823.244 287.711C823.709 284.747 825.082 281.965 827.205 279.685C828.768 277.952 830.737 276.563 832.966 275.621C835.196 274.678 837.629 274.207 840.086 274.241C843.108 274.273 846.072 275.011 848.695 276.385C851.318 277.758 853.513 279.722 855.071 282.09C856.463 284.539 857.657 287.078 858.645 289.686C859.586 292.007 861.038 294.127 862.91 295.915C866.249 298.959 870.63 300.863 875.32 301.308C878.421 301.662 881.57 301.35 884.516 300.396C886.538 299.662 887.563 298.979 887.646 299.105Z" fill="#455A64"/>
<path d="M755.102 296.244C755.102 296.244 755.324 295.965 755.573 295.383C755.93 294.571 755.93 293.664 755.573 292.851C755.32 292.213 754.856 291.664 754.245 291.278C753.635 290.892 752.908 290.69 752.166 290.699C751.188 290.77 750.257 291.111 749.495 291.676C748.733 292.241 748.177 293.004 747.9 293.864C747.653 294.935 747.752 296.048 748.185 297.069C748.618 298.089 749.366 298.973 750.338 299.612C751.504 300.337 752.824 300.831 754.212 301.062C755.601 301.293 757.027 301.256 758.398 300.954C761.519 300.396 764.363 298.941 766.514 296.801C768.703 294.358 770.256 291.492 771.057 288.42C771.947 285.22 773.367 282.163 775.268 279.356C777.126 276.764 779.47 274.493 782.193 272.646C786.046 270.038 790.577 268.396 795.339 267.88C800.1 267.365 804.926 267.995 809.339 269.709C810.295 270.086 811.221 270.526 812.109 271.025C812.69 271.354 812.995 271.557 812.967 271.608C812.94 271.658 811.61 271.025 809.145 270.19C805.641 269.035 801.925 268.51 798.203 268.645C792.682 268.85 787.367 270.619 782.996 273.709C780.421 275.486 778.208 277.663 776.459 280.14C774.648 282.864 773.285 285.815 772.414 288.901C771.557 292.154 769.899 295.184 767.567 297.763C765.191 300.082 762.065 301.644 758.648 302.22C757.099 302.54 755.493 302.556 753.937 302.268C752.38 301.98 750.908 301.394 749.617 300.548C748.473 299.777 747.602 298.716 747.109 297.496C746.617 296.277 746.526 294.953 746.847 293.687C747.205 292.661 747.899 291.761 748.836 291.109C749.772 290.456 750.906 290.083 752.083 290.041C753.099 290.013 754.089 290.339 754.853 290.952C755.436 291.444 755.875 292.062 756.127 292.75C756.321 293.215 756.406 293.712 756.378 294.209C756.349 294.706 756.207 295.192 755.961 295.636C755.462 296.244 755.13 296.371 755.102 296.244Z" fill="#263238"/>
<path d="M813.577 274.14C821.077 269.971 829.557 267.497 838.313 266.923C842.687 266.678 847.061 267.394 851.071 269.011C855.08 270.627 858.608 273.098 861.359 276.216C865.348 281.28 866.899 287.964 872.051 291.889C879.253 297.307 889.918 294.927 899.087 296.447C900.97 296.776 903.103 297.485 903.629 299.156C903.731 299.906 903.655 300.667 903.407 301.388C903.158 302.109 902.743 302.773 902.189 303.334L892.937 315.994C894.755 317.06 896.814 317.734 898.959 317.967C901.104 318.199 903.279 317.983 905.319 317.336C903.486 326.289 898.246 334.362 890.527 340.124C891.003 339.978 891.508 339.924 892.008 339.967C892.508 340.01 892.992 340.148 893.431 340.372C893.869 340.596 894.251 340.901 894.552 341.269C894.854 341.636 895.068 342.056 895.181 342.504C895.544 344.339 895.211 346.232 894.239 347.871C891.766 353.106 888.092 357.795 883.467 361.62C878.841 365.446 873.372 368.32 867.427 370.048C861.482 371.776 855.201 372.318 849.008 371.637C842.815 370.957 836.853 369.069 831.526 366.102" fill="#455A64"/>
<path d="M818.867 273.026C814.291 269.577 808.602 267.6 802.675 267.399C796.749 267.198 790.914 268.783 786.071 271.911C779.506 276.342 775.628 283.28 771.168 289.635C766.708 295.991 760.78 302.093 752.747 303.486C746.238 304.625 739.258 302.422 732.997 304.372C726.211 306.473 722.084 313.107 721.336 319.564C721.016 326.133 722.069 332.699 724.438 338.908C722.488 340.279 720.259 341.28 717.881 341.854C715.503 342.428 713.024 342.563 710.588 342.25C712.286 346.939 715.625 350.988 720.089 353.771C723.11 355.19 725.86 357.045 728.233 359.265C730.078 361.855 731.042 364.886 731.003 367.976C731.131 369.75 731.694 371.476 732.65 373.024C733.607 374.573 734.932 375.905 736.528 376.921C738.125 377.938 739.951 378.613 741.871 378.896C743.792 379.18 745.758 379.065 747.623 378.559C751.622 377.472 755.491 376.021 759.174 374.23C759.174 374.23 755.24 379.091 761.334 384.358C763.79 384.106 766.143 383.32 768.197 382.064C770.25 380.808 771.944 379.12 773.135 377.141" fill="#455A64"/>
<path d="M867.73 325.083C869.015 313.802 865.613 302.491 858.198 293.396C850.783 284.301 839.898 278.087 827.704 275.988L825.183 275.532C797.76 272.317 779.45 291.813 776.68 316.981L758.26 432.238L820.474 442.796L827.51 405.474C827.51 405.474 854.351 406.259 859.586 382.459C862.107 370.913 865.21 346.884 867.73 325.083Z" fill="#B78876"/>
<path d="M827.731 405.399C815.616 403.321 804.406 398.11 795.433 390.384C795.433 390.384 799.948 408.918 826.402 411.247L827.731 405.399Z" fill="#AA6550"/>
<path d="M853.936 340.757C853.766 341.646 853.221 342.439 852.418 342.965C851.615 343.49 850.618 343.707 849.642 343.567C849.164 343.517 848.702 343.381 848.282 343.166C847.862 342.951 847.494 342.662 847.197 342.315C846.901 341.969 846.683 341.572 846.555 341.148C846.428 340.724 846.395 340.281 846.457 339.845C846.62 338.951 847.162 338.152 847.966 337.621C848.77 337.09 849.77 336.87 850.75 337.009C851.231 337.059 851.696 337.196 852.117 337.413C852.539 337.629 852.909 337.921 853.206 338.27C853.503 338.619 853.72 339.019 853.846 339.446C853.971 339.873 854.001 340.319 853.936 340.757V340.757Z" fill="#263238"/>
<path d="M859.725 335.769C859.171 336.148 856.733 333.743 852.744 333.059C848.756 332.376 845.404 333.718 845.071 333.186C844.739 332.654 845.542 332.249 846.983 331.616C848.946 330.816 851.132 330.586 853.243 330.958C855.359 331.295 857.302 332.245 858.783 333.667C859.752 334.756 860.002 335.617 859.725 335.769Z" fill="#263238"/>
<path d="M817.87 338.503C817.316 338.858 814.906 336.477 810.89 335.794C806.873 335.11 803.577 336.427 803.217 335.794C802.857 335.161 803.688 334.832 805.156 334.199C807.109 333.396 809.286 333.166 811.388 333.54C813.503 333.883 815.443 334.832 816.928 336.25C817.898 337.465 818.147 338.326 817.87 338.503Z" fill="#263238"/>
<path d="M829.144 359.367C831.379 359.105 833.641 359.105 835.875 359.367C836.928 359.367 837.925 359.367 838.23 358.835C838.558 357.896 838.558 356.887 838.23 355.949C837.731 353.417 837.205 350.885 836.678 348.353C834.546 337.49 833.216 328.628 833.715 328.552C834.213 328.476 836.291 337.212 838.396 348.074C838.895 350.758 839.365 353.315 839.836 355.67C840.249 356.914 840.16 358.253 839.587 359.443C839.364 359.735 839.076 359.98 838.742 360.163C838.407 360.347 838.035 360.464 837.648 360.506C837.05 360.573 836.445 360.573 835.847 360.506C833.571 360.377 831.319 359.995 829.144 359.367V359.367Z" fill="#263238"/>
<path d="M816.818 359.873C817.482 359.873 816.679 363.924 819.809 367.469C822.939 371.014 827.676 371.292 827.593 371.875C827.51 372.457 826.402 372.457 824.435 372.179C821.882 371.765 819.569 370.547 817.898 368.735C816.299 366.992 815.504 364.75 815.682 362.481C815.848 360.683 816.541 359.797 816.818 359.873Z" fill="#263238"/>
<path d="M822.524 320.399C822.053 321.387 818.009 320.627 813.216 320.83C808.424 321.032 804.436 321.944 803.882 321.007C803.632 320.551 804.38 319.64 806.015 318.779C808.171 317.686 810.585 317.087 813.05 317.032C815.517 316.936 817.974 317.37 820.225 318.298C821.914 319.032 822.69 319.918 822.524 320.399Z" fill="#263238"/>
<path d="M862.301 321.564C861.248 322.248 858.035 320.83 853.991 320.121C849.947 319.412 846.346 319.462 845.681 318.475C845.404 317.994 846.096 317.234 847.758 316.703C850.037 316.05 852.463 315.954 854.794 316.424C857.129 316.818 859.308 317.77 861.11 319.184C862.439 320.374 862.744 321.311 862.301 321.564Z" fill="#263238"/>
<path d="M776.985 335.237C776.569 334.984 760.06 327.312 757.29 343.694C754.52 360.076 773.079 359.265 773.19 358.886C773.301 358.506 776.985 335.237 776.985 335.237Z" fill="#B78876"/>
<path d="M770.337 352.075C770.337 352.075 769.977 352.227 769.423 352.378C768.629 352.575 767.782 352.474 767.068 352.1C766.029 351.258 765.252 350.18 764.814 348.975C764.376 347.77 764.294 346.481 764.575 345.238C764.779 343.832 765.318 342.484 766.154 341.288C766.412 340.792 766.799 340.361 767.283 340.034C767.766 339.708 768.33 339.495 768.924 339.415C769.297 339.386 769.668 339.473 769.98 339.661C770.292 339.85 770.525 340.128 770.642 340.453C770.808 340.959 770.642 341.263 770.642 341.314C770.642 341.364 771.057 341.086 771.029 340.402C771.009 339.977 770.823 339.572 770.503 339.263C770.288 339.057 770.031 338.893 769.745 338.78C769.46 338.667 769.152 338.607 768.841 338.604C768.085 338.638 767.351 338.847 766.707 339.21C766.063 339.573 765.53 340.079 765.157 340.681C764.146 341.984 763.508 343.499 763.301 345.086C762.973 346.536 763.116 348.041 763.711 349.418C764.307 350.794 765.329 351.982 766.653 352.834C767.111 353.034 767.613 353.138 768.121 353.138C768.629 353.138 769.131 353.034 769.589 352.834C770.226 352.48 770.392 352.125 770.337 352.075Z" fill="#AA6550"/>
<path d="M803.438 288.648C808.894 288.45 814.248 290.039 818.535 293.13L821.305 295.13L866.955 307.79C878.838 304.372 873.353 294.092 864.046 289.534C853.16 284.192 841.526 274.595 829.421 272.342C817.316 270.088 795.128 273.456 784.215 284.445C780.455 288.112 777.51 292.411 775.545 297.105C772.034 308.657 770.126 320.566 769.866 332.553C770.447 336.329 771.8 339.971 773.855 343.289V343.289C777.954 343.972 780.087 341.238 780.198 337.44L782.414 322.779C787.122 320.515 790.894 316.91 793.158 312.51C795.423 308.11 796.056 303.155 794.962 298.396C794.962 298.396 794.962 298.548 794.962 298.396C794.581 297.225 794.514 295.986 794.768 294.786C795.022 293.586 795.59 292.46 796.422 291.503C797.254 290.546 798.326 289.787 799.548 289.29C800.769 288.793 802.104 288.573 803.438 288.648V288.648Z" fill="#455A64"/>
<path d="M795.378 293.003C797.372 287.939 807.289 286.065 812.552 288.521C817.815 290.977 821.194 295.763 824.767 300.042C828.341 304.321 832.939 308.6 838.811 309.183C844.684 309.765 851.526 306.296 856.955 308.904C859.147 310.356 861.255 311.911 863.27 313.563C865.085 314.525 867.115 315.098 869.207 315.238C871.299 315.379 873.399 315.083 875.348 314.373C879.219 312.944 882.833 310.989 886.068 308.575C874.489 306.929 864.628 300.295 855.376 293.712C846.124 287.129 836.595 280.242 825.155 277.938C813.715 275.634 799.838 279.507 795.378 289.382" fill="#455A64"/>
<path d="M732.582 359.291C732.582 359.291 733.136 359.569 734.216 359.797C735.824 360.074 737.486 359.784 738.87 358.987C739.941 358.358 740.827 357.497 741.45 356.482C742.073 355.467 742.414 354.327 742.443 353.163C742.524 350.017 741.641 346.912 739.895 344.2C737.733 340.809 736.04 337.186 734.853 333.414C734.165 331.183 734.004 328.844 734.382 326.552C734.759 324.26 735.666 322.068 737.042 320.121C738.692 318.063 741.008 316.531 743.662 315.74C746.349 314.976 749.159 314.634 751.972 314.728C757.512 314.728 763.467 315.664 768.98 314.196C771.663 313.472 774.003 311.948 775.628 309.866C777.144 307.754 778.154 305.372 778.592 302.878C779.644 297.966 779.201 292.952 780.115 288.218C780.498 285.883 781.284 283.618 782.442 281.508C783.578 279.483 785.304 277.783 787.428 276.596C789.352 275.62 791.47 275.004 793.657 274.782C795.845 274.56 798.058 274.738 800.17 275.304C803.627 276.191 806.819 277.784 809.505 279.963C811.51 281.564 813.364 283.317 815.045 285.205C816.43 286.749 817.427 288.015 818.092 288.851C818.455 289.273 818.779 289.722 819.061 290.193C818.618 289.846 818.219 289.455 817.87 289.028C817.039 288.116 815.959 286.977 814.602 285.559C812.914 283.732 811.061 282.038 809.062 280.495C806.425 278.468 803.333 276.999 800.004 276.191C798.027 275.681 795.96 275.533 793.921 275.755C791.882 275.977 789.911 276.563 788.12 277.482C786.221 278.751 784.645 280.381 783.502 282.261C782.359 284.141 781.676 286.225 781.5 288.37C780.669 292.927 781.14 297.94 780.06 303.106C779.62 305.817 778.543 308.408 776.902 310.702C775.102 313.029 772.496 314.733 769.506 315.538C763.467 317.133 757.54 316.12 752.027 316.12C749.359 316.018 746.69 316.326 744.133 317.032C741.744 317.732 739.653 319.095 738.15 320.931C736.873 322.737 736.026 324.768 735.664 326.892C735.301 329.016 735.431 331.186 736.044 333.262C737.159 336.973 738.769 340.544 740.837 343.896C742.594 346.776 743.438 350.047 743.274 353.341C743.198 354.602 742.785 355.828 742.07 356.909C741.355 357.991 740.361 358.896 739.175 359.544C738.424 359.942 737.594 360.201 736.734 360.305C735.874 360.409 734.999 360.357 734.161 360.152C733.567 359.985 733.025 359.689 732.582 359.291V359.291Z" fill="#455A64"/>
<path d="M887.646 299.105C887.646 299.105 887.453 299.333 886.954 299.637C886.232 300.094 885.462 300.485 884.655 300.802C881.653 301.975 878.375 302.437 875.126 302.144C870.247 301.801 865.652 299.911 862.135 296.801C860.11 294.924 858.534 292.682 857.509 290.218C856.52 287.667 855.344 285.18 853.991 282.774C852.539 280.592 850.509 278.78 848.088 277.506C845.667 276.231 842.934 275.535 840.141 275.482C837.863 275.429 835.601 275.835 833.513 276.671C831.426 277.507 829.566 278.752 828.064 280.318C825.968 282.472 824.526 285.091 823.881 287.914C823.466 289.914 823.549 291.053 823.41 291.053C823.272 291.053 823.41 290.775 823.244 290.243C823.144 289.402 823.144 288.553 823.244 287.711C823.709 284.747 825.082 281.965 827.205 279.685C828.768 277.952 830.737 276.563 832.966 275.621C835.196 274.678 837.629 274.207 840.086 274.241C843.108 274.273 846.072 275.011 848.695 276.385C851.318 277.758 853.513 279.722 855.071 282.09C856.463 284.539 857.657 287.078 858.645 289.686C859.586 292.007 861.038 294.127 862.91 295.915C866.249 298.959 870.63 300.863 875.32 301.308C878.421 301.662 881.57 301.35 884.516 300.396C886.538 299.662 887.563 298.979 887.646 299.105Z" fill="#455A64"/>
<path d="M755.102 296.244C755.102 296.244 755.324 295.965 755.573 295.383C755.93 294.571 755.93 293.664 755.573 292.851C755.32 292.213 754.856 291.664 754.245 291.278C753.635 290.892 752.908 290.69 752.166 290.699C751.188 290.77 750.257 291.111 749.495 291.676C748.733 292.241 748.177 293.004 747.9 293.864C747.653 294.935 747.752 296.048 748.185 297.069C748.618 298.089 749.366 298.973 750.338 299.612C751.504 300.337 752.824 300.831 754.212 301.062C755.601 301.293 757.027 301.256 758.398 300.954C761.519 300.396 764.363 298.941 766.514 296.801C768.703 294.358 770.256 291.492 771.057 288.42C771.947 285.22 773.367 282.163 775.268 279.356C777.126 276.764 779.47 274.493 782.193 272.646C786.046 270.038 790.577 268.396 795.339 267.88C800.1 267.365 804.926 267.995 809.339 269.709C810.295 270.086 811.221 270.526 812.109 271.025C812.69 271.354 812.995 271.557 812.967 271.608C812.94 271.658 811.61 271.025 809.145 270.19C805.641 269.035 801.925 268.51 798.203 268.645C792.682 268.85 787.367 270.619 782.996 273.709C780.421 275.486 778.208 277.663 776.459 280.14C774.648 282.864 773.285 285.815 772.414 288.901C771.557 292.154 769.899 295.184 767.567 297.763C765.191 300.082 762.065 301.644 758.648 302.22C757.099 302.54 755.493 302.556 753.937 302.268C752.38 301.98 750.908 301.394 749.617 300.548C748.473 299.777 747.602 298.716 747.109 297.496C746.617 296.277 746.526 294.953 746.847 293.687C747.205 292.661 747.899 291.761 748.836 291.109C749.772 290.456 750.906 290.083 752.083 290.041C753.099 290.013 754.089 290.339 754.853 290.952C755.436 291.444 755.875 292.062 756.127 292.75C756.321 293.215 756.406 293.712 756.378 294.209C756.349 294.706 756.207 295.192 755.961 295.636C755.462 296.244 755.13 296.371 755.102 296.244Z" fill="#263238"/>
<path d="M827.731 405.399C815.616 403.321 804.406 398.11 795.433 390.384C795.433 390.384 799.948 408.918 826.402 411.247L827.731 405.399Z" fill="#AA6550"/>
<path d="M541.175 756.638C541.175 756.638 545.219 729.824 520.843 728.178C496.467 726.532 491.509 745.902 491.509 745.902L481.592 742.357C481.592 742.357 491.509 715.391 524.915 722.405C558.321 729.419 550.648 760.385 550.648 760.385L541.175 756.638Z" fill="#FF6584"/>
<g opacity="0.3">
<path opacity="0.3" d="M541.175 756.638C541.175 756.638 545.219 729.824 520.843 728.178C496.467 726.532 491.509 745.902 491.509 745.902L481.592 742.357C481.592 742.357 491.509 715.391 524.915 722.405C558.321 729.419 550.648 760.385 550.648 760.385L541.175 756.638Z" fill="black"/>
</g>
<path d="M431.206 728.254L398.271 852.347L578.542 888.96L609.068 765.93L431.206 728.254Z" fill="#FF6584"/>
<path d="M609.068 765.93C608.94 766.098 608.792 766.251 608.624 766.386L607.212 767.576L601.672 772.083C596.88 775.957 590.01 781.628 581.229 788.313C571.07 796.345 559.99 803.348 548.183 809.202C541.113 812.568 533.614 815.119 525.857 816.798C517.495 818.637 508.822 818.981 500.317 817.811C491.82 816.484 483.739 813.486 476.634 809.025C470.039 804.912 464.165 799.91 459.211 794.187C450.997 784.414 444.716 773.402 440.652 761.651C437.023 751.725 434.918 743.471 433.477 737.774C432.84 734.989 432.314 732.71 431.926 731.191L431.566 729.469C431.529 729.277 431.529 729.08 431.566 728.887C431.679 729.058 431.754 729.247 431.788 729.444L432.286 731.14C432.729 732.736 433.339 734.913 434.114 737.648C435.721 743.294 437.965 751.498 441.704 761.347C445.873 772.934 452.177 783.783 460.346 793.428C465.241 799.032 471.031 803.931 477.52 807.961C484.466 812.303 492.356 815.222 500.65 816.519C508.952 817.664 517.417 817.329 525.58 815.532C533.271 813.899 540.714 811.407 547.74 808.113C559.497 802.339 570.555 795.448 580.73 787.553C589.594 780.995 596.575 775.425 601.45 771.652L606.99 767.348L608.486 766.259L609.068 765.93Z" fill="#263238"/>
<path d="M554 883.947C553.64 883.795 565.08 857.892 579.622 826.065C594.165 794.238 606.187 768.563 606.547 768.69C606.907 768.817 595.467 794.744 580.952 826.571C566.437 858.399 554.222 884.073 554 883.947Z" fill="#263238"/>
<path d="M608.043 766.74C608.036 767.17 607.962 767.596 607.821 768.006C607.572 768.943 607.267 770.133 606.879 771.551C606.048 774.64 604.746 779.147 603.084 784.54C599.76 795.478 594.774 810.519 589.234 827.053C583.694 843.586 578.653 858.424 574.913 869.438C573.168 874.73 571.728 879.085 570.675 882.326C570.204 883.719 569.789 884.858 569.484 885.795C569.367 886.219 569.19 886.628 568.958 887.01C568.999 886.582 569.083 886.159 569.207 885.744L570.121 882.174C570.952 879.085 572.254 874.578 573.944 869.185C577.268 858.247 582.254 843.207 587.794 826.673C593.334 810.139 598.375 795.301 602.115 784.287C603.86 778.995 605.273 774.64 606.353 771.424C606.824 770.007 607.212 768.892 607.544 767.93C607.651 767.515 607.818 767.114 608.043 766.74V766.74Z" fill="#263238"/>
<path d="M499.199 812.82L493.779 811.904L491.91 821.141L497.33 822.057L499.199 812.82Z" fill="#263238"/>
<path d="M609.068 765.93C608.439 765.922 607.815 765.837 607.212 765.677L602.032 764.715L582.974 760.917L520.234 747.877L457.576 734.482L438.63 730.279L433.505 729.064C432.9 728.938 432.308 728.769 431.732 728.558C432.351 728.568 432.966 728.653 433.56 728.811L438.768 729.773L457.798 733.571L520.566 746.611L583.223 760.005L602.17 764.234L607.295 765.424C607.896 765.56 608.488 765.729 609.068 765.93Z" fill="#263238"/>
<path d="M525.303 678.044C525.303 678.044 506.771 705.896 505.303 710.555C503.835 715.214 496.993 721.898 502.533 724.76C502.533 724.76 500.705 728.305 506.855 730.837C506.855 730.837 505.442 737.116 513.974 738.002C513.974 738.002 518.544 744.205 523.835 742.433C523.835 742.433 530.4 747.092 534.444 742.787C537.656 739.157 540.599 735.333 543.252 731.343L547.241 735.622C549.708 732.463 551.06 728.691 551.119 724.81C551.119 718.708 544.554 709.821 547.989 702.833C549.033 700.288 550.419 697.873 552.116 695.642L525.303 678.044Z" fill="#B78876"/>
<g opacity="0.3">
<path opacity="0.3" d="M563.252 800.289C553.349 813.511 539.901 824.191 524.195 831.306C513.115 836.598 499.957 840.016 487.991 836.573C477.548 833.585 469.57 825.812 463.283 817.608C450.592 800.924 442.947 781.472 441.123 761.22C441.123 761.22 461.593 812.645 497.021 815.937C532.449 819.229 563.252 800.289 563.252 800.289Z" fill="black"/>
</g>
<path d="M518.433 660.751L528.405 687.489L552.56 652.471L543.086 625.936L518.433 660.751Z" fill="#455A64"/>
<path d="M1016.95 253.833L1026.65 242.616L1048.58 265.404L1039.14 281.888L1016.95 253.833Z" fill="#FAFAFA"/>
<path d="M1016.95 253.833C1017.63 254.49 1018.26 255.193 1018.83 255.935L1023.65 261.708C1027.7 266.62 1033.29 273.507 1039.72 281.533H1038.53L1045.76 268.873C1046.52 267.607 1047.24 266.341 1047.92 265.075V265.835C1039.39 256.922 1031.8 248.921 1026.17 242.895H1026.95L1019.72 250.845C1018.85 251.875 1017.93 252.864 1016.95 253.808C1017.63 252.737 1018.41 251.721 1019.28 250.769C1020.88 248.769 1023.24 245.883 1026.26 242.312L1026.62 241.882L1027.03 242.287C1032.85 248.161 1040.55 256.086 1049.19 265.075L1049.53 265.43L1049.28 265.809C1048.58 267.075 1047.86 268.341 1047.12 269.633L1039.86 282.293L1039.33 283.204L1038.67 282.369C1032.19 274.114 1026.7 266.974 1022.88 261.935L1018.45 256.036C1017.86 255.353 1017.36 254.615 1016.95 253.833V253.833Z" fill="#263238"/>
<path d="M515.469 671.588C515.469 671.588 507.159 685.792 506.993 685.919L547.463 704.985L552.061 695.642L515.469 671.588Z" fill="#FAFAFA"/>
<path d="M515.469 671.588C516.428 672.066 517.353 672.599 518.239 673.183L525.94 678.019C532.505 682.197 541.867 688.147 552.532 695.11L553.003 695.414L552.754 695.895C551.285 698.908 549.734 702.048 548.183 705.263L547.851 705.896L547.186 705.567L544.056 704.099C529.486 697.237 516.356 690.957 506.827 686.375L506.384 686.172L506.744 685.59L513.032 675.462C513.754 674.155 514.587 672.902 515.525 671.714C514.972 673.084 514.305 674.413 513.53 675.689C512.782 677.006 511.951 678.551 510.982 680.272C510.483 681.184 509.929 682.121 509.375 683.108L508.461 684.678L507.99 685.463L507.769 685.894V686.096C507.694 686.217 507.601 686.328 507.492 686.425V685.64C517.131 690.046 530.344 696.199 544.914 703.06L548.045 704.529L547.047 704.858C548.654 701.643 550.177 698.503 551.673 695.49L551.923 696.275C541.535 689.413 532.533 683.361 526.134 678.956L518.267 673.512C516.494 672.373 515.497 671.664 515.469 671.588Z" fill="#263238"/>
<path d="M748.814 669.537C786.348 669.359 827.427 682.197 854.213 706.023C864.96 688.527 860.528 667.688 853.991 648.926C847.454 630.164 835.321 613.731 823.133 597.755C820.469 593.564 816.722 590.034 812.219 587.475C803.272 583.297 792.054 587.475 784.159 593.729C772.248 603.072 764.52 616.517 760.005 630.291C755.49 644.065 753.939 658.573 752.415 672.904" fill="#455A64"/>
<path d="M823.493 424.743C823.493 424.743 823.937 411.247 831 411.247C835.062 411.296 839.091 411.929 842.939 413.121L1014.96 250.668L1044.46 282.495L963.018 377.876L862.55 471.56C862.55 471.56 853.714 486.625 852.08 494.525C850.445 502.425 847.648 577.828 848.562 591.906C849.476 605.984 863.547 661.333 863.354 687.59C863.16 713.847 854.213 706.074 854.213 706.074L824.186 629.405L810.114 595.248L804.27 587.778L809.117 567.522C809.117 567.522 827.815 509.666 827.731 498.323C827.648 486.98 830.501 474.522 830.501 465.66C830.501 457.178 821.61 440.998 821.61 440.998L823.493 424.743Z" fill="#CFBAF0"/>
<path d="M761.75 394.612L757.983 406.057L755.933 406.892L741.003 439.479L738.482 687.615L760.974 693.211C760.974 693.211 782.22 670.423 789.228 654.142C796.237 637.861 810.696 589.323 810.696 589.323L830.363 481.916L833.133 455.152C833.541 451.321 832.92 447.457 831.322 443.896C829.724 440.335 827.198 437.184 823.964 434.719V434.719L824.961 424.161L819.421 426.693L761.75 394.612Z" fill="#FAFAFA"/>
<path d="M758.481 406.107C758.556 405.045 758.751 403.993 759.063 402.968C759.617 400.689 760.31 397.904 761.141 394.511L761.307 393.878L761.916 394.207C768.647 397.803 777.844 402.841 787.982 408.462C801.499 416.058 813.272 422.641 819.504 426.338H819.144C821.004 425.471 822.93 424.726 824.906 424.11C823.151 425.198 821.298 426.147 819.366 426.946H819.2H819.006C812.552 423.578 800.641 417.122 787.123 409.602C776.985 404.006 767.872 398.841 761.279 395.043L762.027 394.764C761.03 398.081 760.171 400.866 759.506 403.12C759.295 404.149 758.951 405.152 758.481 406.107Z" fill="#263238"/>
<path d="M814.38 445.885C814.769 447.248 815.037 448.636 815.183 450.038C815.627 452.722 816.153 456.621 816.651 461.482C819.212 486.785 818.58 512.272 814.768 537.442C814.02 542.253 813.327 546.152 812.746 548.811C812.538 550.212 812.195 551.593 811.721 552.938C811.767 551.529 811.924 550.124 812.192 548.735C812.607 546.051 813.133 542.152 813.743 537.316C814.989 527.694 816.264 514.325 816.651 499.538C817.039 484.751 816.374 471.357 815.627 461.558C815.266 456.722 814.906 452.798 814.629 450.088C814.416 448.696 814.333 447.29 814.38 445.885V445.885Z" fill="#263238"/>
<path d="M813.023 553.698C813.023 553.698 828.673 509.995 828.673 511.464C828.673 512.933 819.615 618.289 819.615 618.289L805.461 582.715L813.023 553.698Z" fill="#455A64"/>
<path d="M788.785 629.582C788.969 628.528 789.295 627.499 789.755 626.518L792.857 618.39C795.461 611.529 798.979 602.008 802.552 591.399C806.125 580.79 809.034 571.143 811.084 564.079C812.053 560.762 812.856 557.977 813.521 555.749C813.746 554.703 814.099 553.684 814.574 552.71C814.525 553.77 814.358 554.822 814.075 555.85C813.66 557.876 812.967 560.737 812.081 564.307C810.28 571.396 807.483 581.145 803.937 591.779C800.392 602.413 796.68 611.908 793.799 618.72C792.386 622.112 791.167 624.847 790.281 626.721C789.884 627.716 789.383 628.674 788.785 629.582V629.582Z" fill="#455A64"/>
<path d="M837.759 499.234C838.056 500.052 838.215 500.905 838.23 501.766C838.41 504.068 838.41 506.378 838.23 508.679C837.718 516.313 835.462 523.765 831.609 530.555C827.787 537.493 823.549 543.418 820.751 548.279C818.85 551.498 817.148 554.812 815.654 558.205H815.377C815.571 557.8 815.682 557.572 815.737 557.597C815.793 557.622 815.737 557.85 815.737 558.306H815.46C816.493 554.732 817.961 551.275 819.837 548.001C822.607 542.937 826.623 536.987 830.418 530.277C834.171 523.615 836.511 516.364 837.316 508.907C837.897 502.83 837.509 499.26 837.759 499.234Z" fill="#455A64"/>
<path d="M824.435 428.997C825.505 429.515 826.501 430.153 827.399 430.896C829.959 432.749 832.392 434.745 834.684 436.871C838.198 439.968 841.261 443.466 843.797 447.278C845.408 449.585 846.483 452.171 846.955 454.874C847.25 457.718 847.156 460.584 846.678 463.407C845.308 471.136 843.213 478.743 840.418 486.144C838.119 492.525 836.041 497.437 834.712 500.273L834.462 499.943C835.596 499.905 836.73 499.99 837.842 500.197C836.726 500.368 835.594 500.444 834.462 500.424H834.075L834.213 500.07C835.266 497.158 837.149 492.195 839.282 485.789C841.895 478.342 843.886 470.724 845.238 463.001C845.709 460.297 845.811 457.55 845.542 454.823C845.145 452.323 844.203 449.921 842.772 447.759C840.314 444.008 837.396 440.525 834.075 437.378C831.305 434.643 828.839 432.567 827.15 431.149C826.177 430.506 825.268 429.786 824.435 428.997V428.997Z" fill="#455A64"/>
<path d="M858.534 451.38C858.096 449.345 857.892 447.275 857.924 445.202C857.728 440.269 856.948 435.371 855.598 430.592C854.196 425.851 851.531 421.502 847.841 417.932C845.071 415.248 842.551 414.235 842.689 414.007C843.31 414.099 843.904 414.306 844.434 414.615C845.914 415.296 847.291 416.146 848.534 417.147C852.594 420.681 855.516 425.165 856.983 430.111C858.379 434.994 859.04 440.028 858.949 445.075C859.07 447.184 858.931 449.299 858.534 451.38V451.38Z" fill="#455A64"/>
<path d="M828.784 564.206C826.149 565.356 823.256 565.929 820.336 565.877C817.45 566.26 814.506 566.009 811.749 565.142C817.416 564.678 823.097 564.365 828.784 564.206V564.206Z" fill="#455A64"/>
<path d="M819.505 582.132C817.513 580.321 815.898 578.193 814.74 575.853C813.14 573.742 811.95 571.395 811.222 568.915C813.202 570.745 814.815 572.879 815.987 575.22C817.564 577.333 818.753 579.668 819.505 582.132V582.132Z" fill="#455A64"/>
<path d="M705.657 420.692C706.613 421.247 707.488 421.91 708.261 422.667C710.505 424.6 712.537 426.728 714.328 429.022C720.419 436.601 724.151 445.547 725.127 454.909C726.102 464.271 724.285 473.7 719.868 482.194C718.559 484.745 716.992 487.178 715.186 489.461C714.574 490.331 713.848 491.13 713.026 491.841C712.776 491.689 715.796 488.246 718.926 481.713C723.023 473.325 724.683 464.113 723.747 454.967C722.81 445.821 719.308 437.05 713.58 429.503C709.12 423.756 705.436 420.869 705.657 420.692Z" fill="#455A64"/>
<path d="M586.077 673.031C592.808 686.248 702.195 738.863 702.195 738.863C702.195 738.863 727.901 721.012 760.836 684.197C793.771 647.382 813.023 553.672 813.023 553.672C813.023 553.672 794.741 481.029 781.888 450.468C769.035 419.907 755.822 406.285 755.822 406.285L688.816 421.224L667.819 549.773L666.6 589.602C666.6 589.602 661.254 590.842 661.254 592.994V597.704L586.077 673.031Z" fill="#CFBAF0"/>
<path d="M511.924 669.258C511.924 669.258 608.652 526.074 619.04 509.742C631.006 490.904 683.165 418.236 691.06 420.793C698.954 423.35 725.463 441.53 714.826 477.181C704.189 512.831 691.946 531.72 691.946 531.72L653.72 568.915L553.778 696.68L514.583 670.98L511.924 669.258Z" fill="#CFBAF0"/>
<path d="M808.618 565.953C808.528 566.329 808.368 566.688 808.147 567.016C807.815 567.725 807.289 568.712 806.569 570.004C804.604 573.654 802.393 577.189 799.948 580.588C796.413 585.761 791.813 590.258 786.403 593.83C779.483 597.909 771.424 600.08 763.19 600.084C748.479 600.297 733.802 598.739 719.535 595.45C713.995 594.21 709.729 592.918 706.766 592.007C705.27 591.551 703.996 591.146 703.358 590.842C702.948 590.732 702.556 590.57 702.195 590.361C703.804 590.638 705.388 591.028 706.932 591.526C709.951 592.311 714.3 593.425 719.785 594.539C733.994 597.546 748.551 598.966 763.135 598.767C771.106 598.771 778.915 596.708 785.655 592.817C790.961 589.396 795.526 585.103 799.117 580.157C802.303 575.979 804.519 572.333 806.098 569.852C806.831 568.497 807.673 567.193 808.618 565.953V565.953Z" fill="#455A64"/>
<path d="M811.942 557.04C811.43 556.744 810.956 556.395 810.53 556.002C809.532 555.166 808.286 554.103 806.707 552.812C803.411 550.001 798.674 545.899 793.19 540.531C778.296 526.729 768.089 509.283 763.8 490.296C760.753 479.434 758.038 469.028 755.49 459.609C752.966 451.282 750.977 442.828 749.534 434.289C748.649 428.428 749.731 422.459 752.637 417.172C753.473 415.772 754.506 414.478 755.711 413.324C756.012 413.016 756.336 412.728 756.681 412.463L757.069 412.21C755.545 413.806 754.225 415.556 753.135 417.426C750.504 422.663 749.608 428.49 750.559 434.187C752.128 442.648 754.2 451.024 756.764 459.279L765.212 489.942C769.468 508.721 779.423 526.025 793.937 539.873C799.311 545.317 803.937 549.495 807.095 552.406L810.724 555.774C811.171 556.161 811.579 556.585 811.942 557.04Z" fill="#455A64"/>
<path d="M756.958 687.868C756.513 688.37 756.031 688.843 755.517 689.286L751.196 693.186L735.075 707.339C728.205 713.34 720.089 720.405 711.059 728.229C708.817 730.364 706.38 732.321 703.774 734.078C702.28 734.987 700.528 735.48 698.732 735.495C696.958 735.411 695.219 735.016 693.608 734.331C687.375 731.799 680.921 729.267 674.44 726.406C652.203 716.735 630.812 705.519 610.453 692.857C602.641 687.995 596.603 683.817 592.309 680.905L587.517 677.487C586.95 677.099 586.414 676.676 585.91 676.221C586.536 676.515 587.13 676.863 587.683 677.259L592.641 680.5C596.935 683.286 603.14 687.337 611.007 692.097C631.483 704.488 652.883 715.555 675.049 725.216C681.531 728.077 687.957 730.659 694.162 733.141C695.608 733.759 697.167 734.128 698.76 734.229C700.288 734.2 701.776 733.779 703.054 733.014C705.579 731.29 707.959 729.394 710.173 727.342L734.382 706.681L750.808 692.806L755.324 689.084C755.815 688.623 756.364 688.215 756.958 687.868V687.868Z" fill="#455A64"/>
<path d="M805.516 559.344C805.378 559.344 806.236 558.331 808.12 558.711C808.683 558.855 809.181 559.157 809.544 559.576C809.908 559.994 810.117 560.507 810.142 561.041C810.143 561.727 809.857 562.387 809.342 562.887C808.826 563.386 808.122 563.686 807.372 563.724C806.673 563.828 805.956 563.731 805.32 563.445C804.685 563.159 804.163 562.699 803.826 562.129C803.553 561.659 803.449 561.123 803.529 560.595C803.608 560.068 803.867 559.577 804.27 559.192C804.536 558.947 804.868 558.771 805.233 558.682C805.599 558.593 805.983 558.594 806.347 558.686C806.846 558.838 807.012 559.066 806.957 559.142C806.901 559.217 805.821 558.914 805.018 559.8C804.838 560.062 804.743 560.364 804.743 560.673C804.743 560.982 804.838 561.285 805.018 561.547C805.256 561.86 805.583 562.108 805.963 562.264C806.344 562.42 806.764 562.479 807.178 562.433C807.566 562.407 807.932 562.259 808.215 562.015C808.498 561.77 808.679 561.444 808.729 561.091C808.719 560.778 808.616 560.474 808.43 560.211C808.245 559.947 807.984 559.735 807.677 559.597C806.569 559.091 805.571 559.572 805.516 559.344Z" fill="#455A64"/>
<path d="M702.029 634.848C701.292 634.622 700.6 634.288 699.979 633.861C698.677 633.177 696.904 632.063 694.716 630.62C689.096 626.816 683.842 622.58 679.01 617.96C674.168 613.36 669.758 608.397 665.825 603.122C664.357 601.097 663.055 599.4 662.473 598.21C662.031 597.621 661.694 596.972 661.476 596.286C663.332 598.296 665.061 600.401 666.656 602.591C670.787 607.656 675.255 612.485 680.035 617.048C684.848 621.556 689.964 625.784 695.353 629.708C697.679 631.31 699.907 633.026 702.029 634.848V634.848Z" fill="#455A64"/>
<path d="M716.931 627.936C716.106 627.692 715.323 627.342 714.605 626.898C713.164 626.164 711.114 625.024 708.621 623.581C702.133 619.76 695.864 615.636 689.841 611.225C683.809 606.826 678.039 602.135 672.556 597.172C670.451 595.248 668.816 593.678 667.708 592.539C666.6 591.399 666.019 590.766 666.102 590.69C668.603 592.507 670.997 594.442 673.276 596.489C677.625 600.135 683.719 605.047 690.755 610.212C697.791 615.377 704.356 619.707 709.175 622.872C711.879 624.403 714.47 626.095 716.931 627.936V627.936Z" fill="#455A64"/>
<path d="M697.098 519.389C695.254 522.036 693.228 524.573 691.032 526.985L675.88 544.709C669.952 551.596 664.523 557.8 660.479 562.205C658.437 564.698 656.127 566.997 653.581 569.067C654.02 568.33 654.549 567.642 655.16 567.016L659.675 561.623L674.744 543.899C680.7 537.012 686.157 530.834 690.229 526.453C692.251 524.251 693.94 522.504 695.131 521.389C695.682 520.643 696.344 519.969 697.098 519.389V519.389Z" fill="#455A64"/>
<path d="M695.104 419.856C695.104 419.856 731.114 428.668 723.469 467.331C715.823 505.995 667.57 558.939 667.57 558.939L663.249 558.154L644.939 579.98C644.939 579.98 659.925 585.044 671.67 579.853C683.414 574.663 713.22 532.631 727.651 499.234C744.798 459.482 739.313 441.91 733.773 432.693C721.391 412.134 708.981 415.982 708.981 415.982L695.104 419.856Z" fill="#455A64"/>
<path d="M818.119 427.376L809.422 437.023L813.023 445.759L819.255 447.734L823.937 437.555L818.119 427.376Z" fill="#FF6584"/>
<path d="M821.056 443.809C820.613 443.809 820.502 440.796 818.701 437.606C816.901 434.415 814.435 432.364 814.74 432.06C815.045 431.757 818.009 433.478 819.975 437.124C820.648 438.111 821.092 439.214 821.278 440.364C821.463 441.514 821.388 442.687 821.056 443.809Z" fill="#263238"/>
<path d="M814.131 445.632C814.131 445.632 816.042 455.304 814.131 459.178C807.012 473.788 793.356 460.47 780.891 448.113C768.426 435.757 751.307 403.677 731.031 397.879C710.754 392.08 688.206 391.194 672.224 404.715L667.293 421.35L685.52 420.793C685.52 420.793 710.976 400.537 732.914 418.261C754.853 435.985 780.669 476.852 797.76 477.839C814.851 478.827 820.945 471.231 822.164 461.786C822.879 455.818 822.552 449.784 821.194 443.91L814.131 445.632Z" fill="#FF6584"/>
<g opacity="0.3">
<path opacity="0.3" d="M776.791 443.581C781.769 454.088 790.42 462.788 801.389 468.319C803.478 469.522 805.9 470.154 808.369 470.142C809.698 469.986 810.976 469.574 812.117 468.932C813.259 468.29 814.238 467.434 814.989 466.42C816.437 464.367 817.382 462.052 817.759 459.634C818.328 456.666 818.606 453.658 818.59 450.645C818.735 449.368 818.485 448.078 817.87 446.923C817.467 446.403 816.863 446.04 816.18 445.909C815.497 445.777 814.785 445.886 814.186 446.214C814.896 449.706 814.998 453.277 814.491 456.798C814.172 458.584 813.407 460.279 812.253 461.751C811.1 463.222 809.591 464.43 807.843 465.28C807.843 465.28 802.607 467.078 794.214 460.343C788.003 455.118 782.182 449.518 776.791 443.581V443.581Z" fill="black"/>
</g>
<path d="M821.167 443.581C821.499 443.733 820.446 445.657 817.843 446.468C816.748 446.815 815.558 446.815 814.463 446.468C813.632 446.189 813.272 445.784 813.355 445.632C813.438 445.48 815.322 445.91 817.399 445.227C819.477 444.543 820.834 443.353 821.167 443.581Z" fill="#263238"/>
<path d="M820.723 466.673C820.336 466.673 819.504 465.382 818.673 463.609C817.842 461.837 817.316 460.318 817.649 460.14C817.981 459.963 819.144 461.229 820.003 463.077C820.862 464.926 821.083 466.572 820.723 466.673Z" fill="white"/>
<path d="M822.385 452.266C822.081 452.519 821.333 452.266 820.474 451.987C819.615 451.709 818.84 451.557 818.784 451.177C818.729 450.797 819.698 450.367 820.945 450.747C822.191 451.126 822.69 452.038 822.385 452.266Z" fill="white"/>
<path d="M817.898 435.96C818.203 436.188 817.15 437.833 815.543 439.606C813.937 441.378 812.413 442.67 812.081 442.442C811.749 442.214 812.829 440.568 814.435 438.796C816.042 437.023 817.565 435.732 817.898 435.96Z" fill="white"/>
<path d="M804.879 477.712C804.491 477.712 804.657 475.864 805.211 473.813C805.765 471.762 806.541 470.167 806.929 470.243C807.316 470.319 807.178 472.041 806.596 474.142C806.015 476.244 805.267 477.839 804.879 477.712Z" fill="white"/>
<path d="M786.043 472.117C785.738 471.889 787.179 469.787 789.284 467.432C791.389 465.078 793.356 463.356 793.66 463.584C793.965 463.812 792.525 465.913 790.42 468.268C788.314 470.623 786.32 472.345 786.043 472.117Z" fill="white"/>
<path d="M784.132 455.557C784.409 455.811 782.608 457.659 780.06 459.685C777.511 461.71 775.295 463.128 775.046 462.85C774.797 462.571 776.625 460.697 779.118 458.697C781.611 456.697 783.91 455.304 784.132 455.557Z" fill="white"/>
<path d="M776.348 443.1C774.366 447.59 770.784 451.337 766.182 453.734C765.905 453.431 768.37 451.202 771.14 448.341C773.91 445.48 775.988 442.948 776.348 443.1Z" fill="white"/>
<path d="M765.157 430.44C765.434 430.719 763.218 432.972 760.227 435.504C758.553 437.178 756.552 438.552 754.326 439.555C754.049 439.277 756.265 437.023 759.257 434.491C762.249 431.959 764.88 430.161 765.157 430.44Z" fill="white"/>
<path d="M757.733 419.35C755.897 421.371 753.836 423.212 751.584 424.844C749.66 426.808 747.515 428.582 745.185 430.136C746.483 427.691 748.379 425.551 750.725 423.882C752.662 421.912 755.056 420.363 757.733 419.35V419.35Z" fill="white"/>
<path d="M747.9 408.488C745.898 410.506 743.761 412.408 741.501 414.185C739.591 416.285 737.566 418.296 735.435 420.211C736.408 417.528 738.148 415.133 740.476 413.273C742.462 411.123 745.018 409.476 747.9 408.488V408.488Z" fill="white"/>
<path d="M732.277 398.334C731.409 400.931 730.22 403.428 728.732 405.778C727.668 408.31 726.293 410.722 724.632 412.969C725.767 407.573 728.4 402.534 732.277 398.334Z" fill="white"/>
<path d="M714.66 394.562C715.048 394.739 713.552 398.258 712.61 402.765C712.258 405.556 711.75 408.327 711.087 411.07C710.002 405.353 711.275 399.471 714.66 394.562Z" fill="white"/>
<path d="M698.649 413.602C696.891 410.746 695.744 407.609 695.27 404.36C694.37 401.197 694.117 397.91 694.522 394.663C695.528 397.751 696.251 400.91 696.683 404.107C697.615 407.219 698.273 410.394 698.649 413.602V413.602Z" fill="white"/>
<path d="M686.101 419.375C680.056 415.622 675.645 410.048 673.636 403.626C674.024 403.474 676.074 407.424 679.509 411.729C682.943 416.033 686.378 419.071 686.101 419.375Z" fill="white"/>
<path d="M818.618 430.845C818.34 429.527 818.201 428.187 818.203 426.845H818.784C815.931 431.114 812.476 435.021 808.508 438.466C807.212 439.793 805.639 440.869 803.882 441.631C803.329 441.779 802.748 441.822 802.177 441.757C801.605 441.691 801.054 441.519 800.558 441.252C799.649 440.745 798.796 440.16 798.009 439.505C794.851 437.099 791.527 434.441 788.12 431.909C774.27 420.996 763.19 410.944 758.287 406.285H758.537C757.146 406.493 755.736 406.578 754.326 406.538C755.668 406.137 757.051 405.866 758.454 405.728H758.592C763.8 410.083 775.212 419.882 789.062 430.769L798.896 438.492C800.447 439.732 801.943 441.024 803.494 440.416C805.076 439.726 806.503 438.773 807.704 437.606C811.655 434.263 815.194 430.536 818.258 426.49L818.84 425.756V426.642C818.914 428.046 818.84 429.454 818.618 430.845V430.845Z" fill="#263238"/>
</svg>
