<svg width="888" height="773" viewBox="0 0 888 773" fill="none" xmlns="http://www.w3.org/2000/svg">
<g clip-path="url(#clip0_1_2)">
<path d="M870.772 743.336L235.263 752.917L-17 708.207H376.817L870.772 743.336Z" fill="#E6E6E6"/>
<path d="M731.822 203.32C787.968 203.32 833.482 157.806 833.482 101.66C833.482 45.5148 787.968 0 731.822 0C675.677 0 630.162 45.5148 630.162 101.66C630.162 157.806 675.677 203.32 731.822 203.32Z" fill="#FF6584"/>
<path d="M336.84 733.96C336.84 733.96 338.327 702.801 368.812 706.423Z" fill="#3F3D56"/>
<path d="M328.227 704.309C336.653 704.309 343.484 697.478 343.484 689.052C343.484 680.625 336.653 673.794 328.227 673.794C319.801 673.794 312.97 680.625 312.97 689.052C312.97 697.478 319.801 704.309 328.227 704.309Z" fill="#CFBAF0"/>
<path d="M330.051 714.744H325.744V744.891H330.051V714.744Z" fill="#3F3D56"/>
<path d="M839.287 739.283C839.287 739.283 840.774 708.124 871.258 711.746Z" fill="#3F3D56"/>
<path d="M830.673 709.631C839.1 709.631 845.93 702.8 845.93 694.374C845.93 685.948 839.1 679.117 830.673 679.117C822.247 679.117 815.416 685.948 815.416 694.374C815.416 702.8 822.247 709.631 830.673 709.631Z" fill="#CFBAF0"/>
<path d="M832.497 720.066H828.191V750.213H832.497V720.066Z" fill="#3F3D56"/>
<path d="M738.738 724.166C738.738 724.166 740.225 693.007 770.709 696.629Z" fill="#3F3D56"/>
<path d="M730.124 694.514C738.55 694.514 745.381 687.683 745.381 679.257C745.381 670.831 738.55 664 730.124 664C721.698 664 714.867 670.831 714.867 679.257C714.867 687.683 721.698 694.514 730.124 694.514Z" fill="#CFBAF0"/>
<path d="M731.948 704.949H727.642V735.096H731.948V704.949Z" fill="#3F3D56"/>
<path d="M457.129 719.057C457.129 719.057 458.616 687.898 489.101 691.52Z" fill="#3F3D56"/>
<path d="M448.516 689.406C456.942 689.406 463.773 682.575 463.773 674.148C463.773 665.722 456.942 658.891 448.516 658.891C440.09 658.891 433.259 665.722 433.259 674.148C433.259 682.575 440.09 689.406 448.516 689.406Z" fill="#CFBAF0"/>
<path d="M450.34 699.841H446.033V729.988H450.34V699.841Z" fill="#3F3D56"/>
<path d="M230.39 724.38C230.39 724.38 231.877 693.221 262.361 696.843Z" fill="#3F3D56"/>
<path d="M221.776 694.728C230.203 694.728 237.034 687.897 237.034 679.471C237.034 671.045 230.203 664.214 221.776 664.214C213.35 664.214 206.519 671.045 206.519 679.471C206.519 687.897 213.35 694.728 221.776 694.728Z" fill="#CFBAF0"/>
<path d="M223.601 705.163H219.294V735.31H223.601V705.163Z" fill="#3F3D56"/>
<path d="M599.277 670.235C691.082 670.235 765.505 595.812 765.505 504.007C765.505 412.202 691.082 337.779 599.277 337.779C507.472 337.779 433.049 412.202 433.049 504.007C433.049 595.812 507.472 670.235 599.277 670.235Z" fill="#3F3D56"/>
<path d="M494.626 517.351C498.754 512.408 503.918 508.433 509.751 505.705C515.584 502.977 521.946 501.563 528.385 501.563C534.825 501.563 541.187 502.977 547.02 505.705C552.853 508.433 558.017 512.408 562.145 517.351C569.209 510.607 574.092 501.902 576.163 492.358C578.235 482.814 577.401 472.868 573.769 463.803C570.136 454.737 563.872 446.967 555.783 441.494C547.694 436.021 538.152 433.096 528.385 433.096C518.619 433.096 509.077 436.021 500.988 441.494C492.899 446.967 486.635 454.737 483.002 463.803C479.37 472.868 478.536 482.814 480.607 492.358C482.679 501.902 487.562 510.607 494.626 517.351V517.351Z" fill="white"/>
<path d="M626.631 517.351C630.759 512.408 635.922 508.433 641.756 505.705C647.589 502.977 653.95 501.563 660.39 501.563C666.83 501.563 673.191 502.977 679.025 505.705C684.858 508.433 690.021 512.408 694.15 517.351C701.214 510.607 706.096 501.902 708.168 492.358C710.24 482.814 709.406 472.868 705.773 463.803C702.141 454.737 695.876 446.967 687.788 441.494C679.699 436.021 670.156 433.096 660.39 433.096C650.624 433.096 641.081 436.021 632.993 441.494C624.904 446.967 618.64 454.737 615.007 463.803C611.375 472.868 610.54 482.814 612.612 492.358C614.684 501.902 619.567 510.607 626.631 517.351Z" fill="white"/>
<path d="M511.707 482.157C520.996 482.157 528.525 474.627 528.525 465.339C528.525 456.051 520.996 448.521 511.707 448.521C502.419 448.521 494.889 456.051 494.889 465.339C494.889 474.627 502.419 482.157 511.707 482.157Z" fill="#3F3D56"/>
<path d="M643.707 482.157C652.996 482.157 660.525 474.627 660.525 465.339C660.525 456.051 652.996 448.521 643.707 448.521C634.419 448.521 626.89 456.051 626.89 465.339C626.89 474.627 634.419 482.157 643.707 482.157Z" fill="#3F3D56"/>
<path d="M479.495 565.12C490.295 565.12 499.051 556.365 499.051 545.564C499.051 534.764 490.295 526.008 479.495 526.008C468.694 526.008 459.939 534.764 459.939 545.564C459.939 556.365 468.694 565.12 479.495 565.12Z" fill="#FF6584"/>
<path d="M704.392 565.12C715.192 565.12 723.948 556.365 723.948 545.564C723.948 534.764 715.192 526.008 704.392 526.008C693.591 526.008 684.836 534.764 684.836 545.564C684.836 556.365 693.591 565.12 704.392 565.12Z" fill="#FF6584"/>
<path d="M591.943 506.451L577.276 570.009L601.721 545.564L591.943 506.451Z" fill="#FF6584"/>
<path d="M667.307 750.905L650.655 736.929L651.043 750.905H645.871L645.458 736.127L622.975 750.905H613.563L645.29 730.051L644.061 686.262L643.143 653.191L648.302 653.049L649.233 686.262L650.461 730.012L675.348 750.905H667.307Z" fill="#3F3D56"/>
<path d="M589.076 750.905L572.424 736.929L572.812 750.905H567.654L567.24 736.127L544.757 750.905H535.345L567.059 730.051L565.831 686.262L564.913 653.191L570.084 653.049L571.015 686.262L572.23 730.012L597.118 750.905H589.076Z" fill="#3F3D56"/>
<path d="M601.721 325.556C597.16 325.556 593.137 329.099 590.446 334.541C588.075 326.358 583.094 320.667 577.276 320.667C576.881 320.707 576.488 320.772 576.102 320.864C573.866 312.127 568.668 306 562.609 306C554.508 306 547.942 316.945 547.942 330.445C547.942 343.946 554.508 354.891 562.609 354.891C563.004 354.851 563.397 354.785 563.783 354.693C566.019 363.43 571.217 369.558 577.276 369.558C581.837 369.558 585.861 366.015 588.551 360.573C590.922 368.756 595.904 374.447 601.721 374.447C609.822 374.447 616.389 363.502 616.389 350.002C616.389 336.501 609.822 325.556 601.721 325.556Z" fill="#3F3D56"/>
<g clip-path="url(#clip1_1_2)">
<path d="M222.648 142.509C222.438 142.509 222.236 142.437 222.083 142.308C221.93 142.179 221.837 142.003 221.822 141.815C221.28 135.184 217.977 128.981 212.575 124.449C207.172 119.916 200.069 117.388 192.685 117.37C191.801 117.37 190.873 117.411 189.926 117.49C189.767 117.504 189.608 117.476 189.467 117.41C189.326 117.344 189.208 117.243 189.129 117.118C185.738 111.772 180.673 107.444 174.567 104.673C168.461 101.903 161.584 100.814 154.794 101.541C148.005 102.268 141.604 104.78 136.39 108.762C131.175 112.745 127.379 118.022 125.474 123.936C125.424 124.094 125.317 124.233 125.169 124.331C125.022 124.428 124.842 124.479 124.659 124.474L124.439 124.468C124.324 124.465 124.21 124.461 124.094 124.461C118.494 124.477 113.068 126.217 108.716 129.392C104.365 132.567 101.35 136.986 100.171 141.917C100.132 142.084 100.03 142.234 99.8822 142.342C99.7346 142.45 99.5502 142.509 99.36 142.509H43.8289C43.6094 142.508 43.3992 142.43 43.2442 142.29C43.0892 142.15 43.0022 141.96 43.0022 141.763C43.0022 141.565 43.0892 141.375 43.2442 141.235C43.3992 141.096 43.6094 141.017 43.8289 141.016H98.6967C100.078 135.888 103.327 131.324 107.925 128.053C112.523 124.781 118.206 122.991 124.066 122.968C126.152 116.892 130.153 111.491 135.582 107.423C141.012 103.355 147.636 100.795 154.651 100.053C161.666 99.3109 168.769 100.419 175.098 103.244C181.426 106.068 186.708 110.487 190.301 115.963C191.116 115.906 191.916 115.877 192.685 115.877C200.488 115.896 207.995 118.568 213.704 123.358C219.413 128.148 222.903 134.702 223.476 141.71C223.483 141.808 223.469 141.906 223.435 141.999C223.4 142.092 223.346 142.178 223.274 142.252C223.203 142.326 223.116 142.387 223.019 142.431C222.921 142.474 222.815 142.5 222.707 142.507C222.687 142.508 222.667 142.509 222.648 142.509Z" fill="#CBCBCB"/>
<path d="M212.786 152.08H76.8474C76.6276 152.08 76.4168 152.001 76.2613 151.861C76.1059 151.721 76.0186 151.531 76.0186 151.333C76.0186 151.135 76.1059 150.945 76.2613 150.805C76.4168 150.665 76.6276 150.587 76.8474 150.587H212.786C213.005 150.587 213.216 150.665 213.372 150.805C213.527 150.945 213.614 151.135 213.614 151.333C213.614 151.531 213.527 151.721 213.372 151.861C213.216 152.001 213.005 152.08 212.786 152.08Z" fill="#CBCBCB"/>
<path d="M110.003 162.903H64.4141C64.305 162.903 64.197 162.884 64.0962 162.847C63.9954 162.81 63.9037 162.755 63.8265 162.685C63.7493 162.616 63.6881 162.534 63.6463 162.443C63.6045 162.352 63.583 162.255 63.583 162.157C63.583 162.059 63.6045 161.961 63.6463 161.871C63.6881 161.78 63.7493 161.698 63.8265 161.628C63.9037 161.559 63.9954 161.504 64.0962 161.467C64.197 161.429 64.305 161.41 64.4141 161.41H110.003C110.223 161.411 110.433 161.49 110.588 161.63C110.743 161.77 110.83 161.959 110.83 162.157C110.83 162.354 110.743 162.544 110.588 162.684C110.433 162.824 110.223 162.903 110.003 162.903Z" fill="#CBCBCB"/>
<path d="M152.627 308.141C152.627 338.488 117.297 353.009 117.297 353.009C117.297 353.009 81.6059 338.488 80.8812 308.141C80.4552 290.304 96.942 275.837 116.754 275.837C121.465 275.837 126.13 276.672 130.482 278.296C134.834 279.919 138.789 282.299 142.12 285.298C145.451 288.298 148.093 291.859 149.896 295.779C151.699 299.698 152.627 303.899 152.627 308.141V308.141Z" fill="#E5E5E5"/>
<path d="M129.255 354.803H105.34L102.441 344.362H132.154L129.255 354.803Z" fill="#CBCBCB"/>
<path d="M128.44 372.661H106.155V383.119H128.44V372.661Z" fill="white"/>
<path d="M128.621 383.282H105.974V372.498H128.621V383.282ZM106.336 382.956H128.259V372.824H106.336V382.956Z" fill="#CBCBCB"/>
<path d="M121.866 356.035H112.73L111.681 354.551H122.914L121.866 356.035Z" fill="#CBCBCB"/>
<path d="M105.883 354.803H105.521V370.793H105.883V354.803Z" fill="#CBCBCB"/>
<path d="M129.074 354.803H128.712V370.793H129.074V354.803Z" fill="#CBCBCB"/>
<path d="M120.93 344.185L120.708 343.926C131.176 336.657 143.655 324.203 143.655 306.155C143.663 299.835 141.599 293.652 137.721 288.384C133.843 283.115 128.324 278.995 121.856 276.54L121.997 276.239C128.531 278.719 134.106 282.881 138.023 288.203C141.94 293.525 144.025 299.77 144.017 306.155C144.017 324.335 131.462 336.87 120.93 344.185Z" fill="#CBCBCB"/>
<path d="M109.334 344.185L109.113 343.926C119.581 336.657 132.059 324.203 132.059 306.155C132.062 299.877 130.023 293.736 126.193 288.489C122.363 283.243 116.91 279.122 110.509 276.635L110.652 276.336C117.119 278.848 122.627 283.011 126.496 288.31C130.364 293.609 132.425 299.813 132.422 306.155C132.422 324.335 119.867 336.871 109.334 344.185Z" fill="#CBCBCB"/>
<path d="M124.174 344.185C113.641 336.87 101.086 324.336 101.086 306.155C101.083 299.813 103.143 293.609 107.012 288.31C110.881 283.01 116.389 278.848 122.856 276.336L122.999 276.635C116.598 279.122 111.145 283.243 107.315 288.489C103.485 293.735 101.446 299.877 101.448 306.155C101.448 324.203 113.927 336.657 124.395 343.926L124.174 344.185Z" fill="#CBCBCB"/>
<path d="M112.578 344.185C102.046 336.87 89.4909 324.336 89.4909 306.155C89.4791 299.745 91.5789 293.476 95.5248 288.141C99.4707 282.806 105.085 278.644 111.658 276.184L111.798 276.485C105.291 278.921 99.7328 283.04 95.8265 288.322C91.9203 293.603 89.8415 299.81 89.8532 306.155C89.8532 324.203 102.332 336.657 112.8 343.926L112.578 344.185Z" fill="#CBCBCB"/>
<path d="M116.935 275.837H116.573V344.362H116.935V275.837Z" fill="#CBCBCB"/>
<path d="M112.672 370.29L106.027 376.273L106.283 376.504L112.928 370.521L112.672 370.29Z" fill="#CBCBCB"/>
<path d="M115.902 370.19L106.025 379.545L106.287 379.77L116.164 370.415L115.902 370.19Z" fill="#CBCBCB"/>
<path d="M130.523 370.303H103.347V373.24H130.523V370.303Z" fill="white"/>
<path d="M130.704 373.403H103.166V370.14H130.704V373.403ZM103.528 373.077H130.342V370.466H103.528V373.077Z" fill="#CBCBCB"/>
<path d="M220.999 231.233C220.999 251.264 197.68 260.848 197.68 260.848C197.68 260.848 174.122 251.264 173.644 231.233C173.362 219.46 184.244 209.911 197.321 209.911C203.601 209.911 209.623 212.157 214.064 216.156C218.504 220.155 220.999 225.578 220.999 231.233V231.233Z" fill="#E5E5E5"/>
<path d="M205.572 262.032H189.787L187.874 255.14H207.486L205.572 262.032Z" fill="#CBCBCB"/>
<path d="M205.034 273.819H190.326V280.722H205.034V273.819Z" fill="white"/>
<path d="M205.154 280.83H190.206V273.711H205.154V280.83ZM190.445 280.614H204.915V273.927H190.445V280.614Z" fill="#CBCBCB"/>
<path d="M200.695 262.845H194.665L193.973 261.866H201.387L200.695 262.845Z" fill="#CBCBCB"/>
<path d="M190.146 262.032H189.907V272.586H190.146V262.032Z" fill="#CBCBCB"/>
<path d="M205.453 262.032H205.214V272.586H205.453V262.032Z" fill="#CBCBCB"/>
<path d="M200.077 255.024L199.931 254.853C206.841 250.055 215.077 241.835 215.077 229.923C215.082 225.751 213.72 221.67 211.16 218.192C208.601 214.715 204.958 211.995 200.689 210.375L200.782 210.177C205.094 211.814 208.774 214.561 211.36 218.073C213.945 221.586 215.322 225.708 215.316 229.923C215.316 241.922 207.029 250.196 200.077 255.024Z" fill="#CBCBCB"/>
<path d="M192.424 255.024L192.278 254.853C199.187 250.055 207.423 241.835 207.423 229.923C207.425 225.779 206.079 221.725 203.551 218.262C201.023 214.799 197.424 212.079 193.199 210.438L193.294 210.24C197.562 211.898 201.198 214.646 203.751 218.144C206.305 221.642 207.664 225.737 207.663 229.923C207.663 241.922 199.376 250.196 192.424 255.024Z" fill="#CBCBCB"/>
<path d="M202.218 255.024C195.267 250.196 186.98 241.922 186.98 229.923C186.978 225.737 188.338 221.642 190.891 218.144C193.445 214.646 197.08 211.898 201.349 210.24L201.443 210.438C197.218 212.079 193.619 214.799 191.091 218.262C188.563 221.725 187.217 225.779 187.219 229.923C187.219 241.835 195.455 250.055 202.364 254.853L202.218 255.024Z" fill="#CBCBCB"/>
<path d="M194.565 255.024C187.613 250.196 179.326 241.922 179.326 229.923C179.319 225.692 180.705 221.554 183.309 218.032C185.913 214.511 189.619 211.764 193.958 210.14L194.05 210.339C189.755 211.947 186.086 214.666 183.508 218.152C180.93 221.638 179.558 225.734 179.566 229.923C179.566 241.835 187.802 250.055 194.711 254.853L194.565 255.024Z" fill="#CBCBCB"/>
<path d="M197.441 209.911H197.202V255.14H197.441V209.911Z" fill="#CBCBCB"/>
<path d="M194.627 272.254L190.241 276.203L190.41 276.356L194.796 272.406L194.627 272.254Z" fill="#CBCBCB"/>
<path d="M196.759 272.188L190.239 278.363L190.413 278.511L196.932 272.337L196.759 272.188Z" fill="#CBCBCB"/>
<path d="M206.41 272.263H188.472V274.201H206.41V272.263Z" fill="white"/>
<path d="M206.529 274.309H188.352V272.155H206.529V274.309ZM188.592 274.094H206.29V272.371H188.592V274.094Z" fill="#CBCBCB"/>
<path d="M419.231 258.618C419.381 258.618 419.526 258.567 419.635 258.474C419.745 258.382 419.812 258.256 419.823 258.121C420.211 253.367 422.578 248.922 426.451 245.673C430.323 242.424 435.415 240.612 440.708 240.599C441.341 240.599 442.006 240.628 442.685 240.685C442.799 240.695 442.913 240.675 443.014 240.627C443.116 240.58 443.2 240.508 443.256 240.418C445.687 236.586 449.318 233.484 453.695 231.498C458.071 229.513 463.001 228.732 467.867 229.253C472.734 229.774 477.322 231.574 481.06 234.429C484.797 237.284 487.518 241.067 488.883 245.305C488.919 245.419 488.996 245.518 489.102 245.588C489.208 245.658 489.336 245.694 489.468 245.691L489.626 245.687C489.708 245.685 489.79 245.682 489.873 245.682C493.887 245.693 497.776 246.94 500.895 249.216C504.014 251.492 506.176 254.66 507.02 258.194C507.049 258.314 507.122 258.421 507.228 258.499C507.333 258.576 507.466 258.618 507.602 258.618H547.406C547.484 258.618 547.562 258.605 547.634 258.578C547.706 258.551 547.772 258.512 547.827 258.462C547.883 258.412 547.927 258.353 547.956 258.288C547.986 258.223 548.002 258.154 548.002 258.083C548.002 258.013 547.986 257.943 547.956 257.878C547.927 257.813 547.883 257.754 547.827 257.704C547.772 257.655 547.706 257.615 547.634 257.588C547.562 257.562 547.484 257.548 547.406 257.548H508.077C507.087 253.872 504.758 250.601 501.463 248.256C498.167 245.911 494.093 244.628 489.893 244.612C488.398 240.256 485.53 236.385 481.638 233.469C477.746 230.553 472.998 228.718 467.97 228.186C462.942 227.654 457.85 228.449 453.314 230.474C448.778 232.498 444.992 235.665 442.417 239.591C441.832 239.55 441.259 239.529 440.708 239.529C435.115 239.543 429.734 241.458 425.641 244.891C421.549 248.324 419.048 253.023 418.637 258.046C418.632 258.116 418.642 258.186 418.667 258.253C418.691 258.32 418.73 258.381 418.782 258.434C418.833 258.487 418.895 258.531 418.965 258.562C419.035 258.593 419.111 258.612 419.188 258.617C419.203 258.618 419.217 258.618 419.231 258.618Z" fill="#CBCBCB"/>
<path d="M426.3 265.478H523.739C523.896 265.478 524.047 265.422 524.159 265.322C524.27 265.221 524.333 265.085 524.333 264.943C524.333 264.802 524.27 264.665 524.159 264.565C524.047 264.465 523.896 264.408 523.739 264.408H426.3C426.142 264.408 425.991 264.465 425.88 264.565C425.768 264.665 425.706 264.802 425.706 264.943C425.706 265.085 425.768 265.221 425.88 265.322C425.991 265.422 426.142 265.478 426.3 265.478V265.478Z" fill="#CBCBCB"/>
<path d="M499.973 273.237H532.651C532.808 273.236 532.959 273.18 533.07 273.079C533.181 272.979 533.243 272.843 533.243 272.702C533.243 272.56 533.181 272.424 533.07 272.324C532.959 272.224 532.808 272.167 532.651 272.167H499.973C499.895 272.167 499.818 272.18 499.746 272.207C499.674 272.234 499.608 272.274 499.553 272.323C499.498 272.373 499.454 272.432 499.424 272.497C499.394 272.562 499.379 272.631 499.379 272.702C499.379 272.772 499.394 272.841 499.424 272.906C499.454 272.971 499.498 273.03 499.553 273.08C499.608 273.13 499.674 273.169 499.746 273.196C499.818 273.223 499.895 273.237 499.973 273.237V273.237Z" fill="#CBCBCB"/>
<path d="M348.129 402.336H346.172L345.242 395.543H348.129V402.336Z" fill="#9F616A"/>
<path d="M348.627 404.043H342.321V403.971C342.322 403.385 342.581 402.823 343.041 402.409C343.501 401.994 344.125 401.761 344.776 401.761H348.627V404.043Z" fill="#2F2E41"/>
<path d="M373.348 398.998L371.672 399.906L366.989 394.514L369.463 393.175L373.348 398.998Z" fill="#9F616A"/>
<path d="M369.347 403.155L369.306 403.094C368.971 402.591 368.872 401.989 369.029 401.421C369.187 400.852 369.588 400.363 370.146 400.06L373.447 398.274L374.752 400.23L369.347 403.155Z" fill="#2F2E41"/>
<path d="M348.637 400.934L348.603 400.934C347.652 400.931 346.701 400.882 345.756 400.786C345.395 400.754 345.004 400.719 344.533 400.684L344.517 400.682C344.196 400.596 344.187 397.882 344.323 388.592C344.393 383.834 344.472 378.441 344.378 375.006L344.377 374.973L344.405 374.95C346.106 373.607 348.136 372.646 350.329 372.145C352.521 371.643 354.815 371.616 357.021 372.066L357.055 372.072L357.073 372.1C358.995 375.029 361.898 379.247 364.704 383.327C371.147 392.692 372.99 395.447 372.788 395.655L372.763 395.672C372.323 395.87 371.993 396.022 371.712 396.152C370.601 396.67 369.459 397.134 368.291 397.541L368.24 397.56L368.202 397.523C361.665 391.072 356.225 383.867 352.86 377.205C352.467 379.479 351.989 382.449 351.485 385.587C350.035 394.609 349.055 400.55 348.66 400.912L348.637 400.934Z" fill="#2F2E41"/>
<path d="M473.623 166.029C473.623 263.753 359.855 310.513 359.855 310.513C359.855 310.513 244.919 263.753 242.586 166.029C241.214 108.588 294.305 62 358.104 62C421.904 62 473.623 108.575 473.623 166.029Z" fill="#CFBAF0"/>
<path d="M362.295 401.568H359.897L358.756 393.238H362.295V401.568Z" fill="#FFB7B7"/>
<path d="M358.184 400.951H362.809V403.573H355.272C355.272 403.229 355.348 402.888 355.494 402.569C355.64 402.251 355.855 401.962 356.125 401.719C356.396 401.475 356.717 401.282 357.07 401.15C357.423 401.019 357.802 400.951 358.184 400.951Z" fill="#2F2E41"/>
<path d="M371.293 401.568H368.895L367.754 393.238H371.294L371.293 401.568Z" fill="#FFB7B7"/>
<path d="M367.182 400.951H371.807V403.573H364.27C364.27 402.877 364.577 402.211 365.123 401.719C365.669 401.227 366.41 400.951 367.182 400.951Z" fill="#2F2E41"/>
<path d="M371 376.76C370.742 376.61 370.523 376.411 370.359 376.177C370.195 375.943 370.09 375.679 370.052 375.405C370.014 375.13 370.042 374.852 370.136 374.588C370.231 374.325 370.388 374.084 370.597 373.881L369.018 353.702L373.566 354.099L373.691 373.86C374.046 374.199 374.251 374.643 374.266 375.109C374.282 375.574 374.107 376.029 373.775 376.386C373.444 376.744 372.978 376.979 372.466 377.048C371.955 377.117 371.433 377.014 371 376.76Z" fill="#FFB7B7"/>
<path d="M362.182 397.371L359.542 397.258C359.317 397.249 359.105 397.162 358.949 397.015C358.793 396.869 358.705 396.675 358.704 396.472L358.519 372.418C358.518 372.304 358.545 372.191 358.597 372.087C358.649 371.983 358.726 371.89 358.821 371.815C358.917 371.74 359.029 371.684 359.151 371.652C359.273 371.62 359.4 371.611 359.526 371.628L370.087 373.008C370.296 373.035 370.487 373.128 370.626 373.271C370.764 373.414 370.841 373.597 370.841 373.787L372.199 396.076C372.2 396.18 372.178 396.284 372.134 396.381C372.09 396.478 372.026 396.566 371.944 396.64C371.862 396.714 371.765 396.773 371.658 396.813C371.55 396.854 371.435 396.874 371.319 396.874H368.473C368.263 396.875 368.06 396.808 367.9 396.685C367.741 396.562 367.635 396.392 367.604 396.205C367.604 396.205 365.454 379.486 365.159 379.496C364.862 379.501 363.098 396.674 363.098 396.674C363.071 396.866 362.968 397.043 362.807 397.172C362.646 397.301 362.439 397.372 362.224 397.372C362.21 397.372 362.196 397.372 362.182 397.371Z" fill="#2F2E41"/>
<path d="M370.047 360.482C369.941 360.413 369.853 360.324 369.79 360.22C369.727 360.116 369.691 360.001 369.684 359.883L369.35 354.444C369.317 353.906 369.507 353.375 369.883 352.955C370.259 352.534 370.794 352.254 371.386 352.168C371.977 352.082 372.583 352.197 373.087 352.489C373.59 352.782 373.956 353.232 374.113 353.753L375.577 358.615C375.637 358.818 375.606 359.035 375.49 359.217C375.374 359.399 375.183 359.533 374.957 359.588L370.793 360.605C370.666 360.636 370.534 360.641 370.405 360.62C370.276 360.599 370.153 360.552 370.047 360.482V360.482Z" fill="#3F3D56"/>
<path d="M366.157 347.556C368.81 347.556 370.961 345.619 370.961 343.23C370.961 340.841 368.81 338.904 366.157 338.904C363.504 338.904 361.353 340.841 361.353 343.23C361.353 345.619 363.504 347.556 366.157 347.556Z" fill="#FFB7B7"/>
<path d="M369.557 346.653C369.356 346.848 369.097 346.987 368.812 347.054C368.526 347.122 368.225 347.114 367.943 347.033C367.662 346.951 367.413 346.799 367.224 346.594C367.036 346.389 366.916 346.14 366.879 345.876C366.87 345.785 366.871 345.694 366.881 345.602C366.942 345.082 367.275 344.61 367.195 344.061C367.177 343.924 367.121 343.794 367.031 343.682C366.317 342.821 364.64 344.067 363.966 343.288C363.553 342.809 364.039 342.057 363.722 341.522C363.303 340.817 362.063 341.165 361.286 340.779C360.421 340.349 360.472 339.154 361.042 338.427C361.412 337.997 361.884 337.647 362.422 337.4C362.96 337.153 363.553 337.016 364.156 336.999C365.365 336.973 366.566 337.184 367.676 337.617C368.986 338.001 370.142 338.723 371.001 339.694C371.445 340.33 371.727 341.048 371.825 341.794C371.924 342.541 371.837 343.297 371.57 344.01C371.28 344.883 370.289 345.951 369.557 346.653Z" fill="#2F2E41"/>
<path d="M370.952 350.446C370.869 350.392 370.784 350.339 370.697 350.287C370.236 350.011 369.736 349.79 369.211 349.631V348.494H365.495V349.549C364.263 349.855 363.158 350.481 362.318 351.348C361.477 352.215 360.939 353.285 360.768 354.426L358.238 371.345C358.222 371.451 358.229 371.558 358.261 371.661C358.292 371.764 358.346 371.86 358.42 371.944C358.492 372.027 358.582 372.096 358.685 372.147C358.788 372.197 358.901 372.229 359.017 372.239C360.79 372.446 362.499 372.973 364.04 373.788C365.159 374.346 366.42 374.636 367.699 374.629C368.715 374.626 369.723 374.464 370.677 374.152C370.839 374.098 370.98 374.002 371.081 373.877C371.183 373.751 371.241 373.601 371.248 373.446C371.339 371.625 371.872 362.253 373.424 356.536C373.726 355.415 373.652 354.238 373.212 353.154C372.772 352.07 371.986 351.128 370.952 350.446Z" fill="#3F3D56"/>
<path d="M398.361 316.292H321.349L312.014 282.667H407.696L398.361 316.292Z" fill="#3F3D56"/>
<path d="M395.736 373.797H323.974V407.475H395.736V373.797Z" fill="white"/>
<path d="M396.319 408H323.39V373.272H396.319V408ZM324.557 406.949H395.152V374.323H324.557V406.949Z" fill="#3F3D56"/>
<path d="M374.565 320.257H345.145L341.769 315.479H377.941L374.565 320.257Z" fill="#3F3D56"/>
<path d="M323.099 316.292H321.932V367.781H323.099V316.292Z" fill="#3F3D56"/>
<path d="M397.778 316.292H396.611V367.781H397.778V316.292Z" fill="#3F3D56"/>
<path d="M371.551 282.097L370.839 281.265C404.548 257.855 444.731 217.751 444.731 159.634C444.758 139.279 438.111 119.37 425.623 102.404C413.135 85.4381 395.362 72.1702 374.534 64.2642L374.988 63.2966C396.028 71.2827 413.981 84.6853 426.596 101.824C439.211 118.962 445.925 139.073 445.898 159.634C445.898 218.178 405.468 258.543 371.551 282.097Z" fill="#3F3D56"/>
<path d="M334.211 282.098L333.499 281.265C367.208 257.856 407.392 217.751 407.392 159.634C407.401 139.416 400.833 119.639 388.5 102.744C376.167 85.8504 358.608 72.5798 337.994 64.5719L338.456 63.6073C359.28 71.6965 377.017 85.1017 389.475 102.167C401.934 119.233 408.568 139.211 408.559 159.634C408.559 218.178 368.128 258.544 334.211 282.098Z" fill="#3F3D56"/>
<path d="M381.997 282.097C348.081 258.544 307.65 218.178 307.65 159.634C307.641 139.211 314.275 119.232 326.734 102.167C339.193 85.1012 356.929 71.696 377.754 63.607L378.216 64.5716C357.601 72.5794 340.043 85.85 327.709 102.744C315.376 119.638 308.808 139.416 308.817 159.634C308.817 217.751 349 257.855 382.71 281.265L381.997 282.097Z" fill="#3F3D56"/>
<path d="M344.658 282.097C310.741 258.544 270.311 218.178 270.311 159.634C270.273 138.992 277.035 118.803 289.742 101.622C302.448 84.4419 320.528 71.0417 341.694 63.1173L342.144 64.087C321.191 71.9318 303.292 85.1973 290.713 102.205C278.134 119.213 271.44 139.199 271.478 159.634C271.478 217.751 311.661 257.856 345.371 281.265L344.658 282.097Z" fill="#3F3D56"/>
<path d="M358.688 62H357.521V282.667H358.688V62Z" fill="#3F3D56"/>
<path d="M344.958 366.162L323.561 385.43L324.386 386.173L345.783 366.905L344.958 366.162Z" fill="#3F3D56"/>
<path d="M355.36 365.841L323.553 395.966L324.399 396.69L356.205 366.565L355.36 365.841Z" fill="#3F3D56"/>
<path d="M402.445 366.205H314.931V375.662H402.445V366.205Z" fill="white"/>
<path d="M403.028 376.188H314.347V365.68H403.028V376.188ZM315.514 375.137H401.862V366.73H315.514V375.137Z" fill="#3F3D56"/>
<path d="M351.115 362.085C351.222 362.1 351.328 362.123 351.43 362.154L359.064 356.764L358.736 354.662L362.193 353.802L363.451 358.499L352.856 363.965C352.845 364.34 352.706 364.703 352.46 365.006C352.213 365.309 351.87 365.536 351.476 365.659C351.082 365.782 350.656 365.794 350.255 365.694C349.853 365.593 349.495 365.385 349.228 365.097C348.961 364.808 348.797 364.454 348.76 364.08C348.722 363.706 348.811 363.331 349.016 363.004C349.221 362.677 349.532 362.414 349.907 362.25C350.282 362.086 350.703 362.028 351.115 362.085L351.115 362.085Z" fill="#FFB7B7"/>
<path d="M357.497 356.013C357.483 355.895 357.499 355.777 357.542 355.665C357.586 355.554 357.657 355.453 357.75 355.369L362.027 351.517C362.45 351.136 363.016 350.909 363.614 350.881C364.213 350.852 364.802 351.024 365.267 351.364C365.733 351.703 366.043 352.186 366.137 352.719C366.231 353.252 366.102 353.798 365.776 354.25L362.73 358.477C362.603 358.653 362.404 358.776 362.175 358.82C361.947 358.864 361.709 358.824 361.513 358.71L357.893 356.595C357.783 356.531 357.69 356.445 357.622 356.344C357.553 356.244 357.511 356.13 357.497 356.013V356.013Z" fill="#3F3D56"/>
<path d="M299.312 318.514C299.162 318.513 299.017 318.462 298.907 318.37C298.797 318.277 298.73 318.151 298.72 318.016C298.331 313.263 295.964 308.817 292.092 305.568C288.219 302.319 283.127 300.507 277.835 300.494C277.202 300.494 276.536 300.523 275.857 300.581C275.744 300.59 275.629 300.57 275.528 300.523C275.427 300.475 275.343 300.403 275.286 300.314C272.855 296.482 269.225 293.379 264.848 291.394C260.471 289.408 255.542 288.627 250.675 289.148C245.809 289.669 241.221 291.47 237.483 294.324C233.746 297.179 231.025 300.962 229.659 305.201C229.623 305.314 229.546 305.414 229.441 305.484C229.335 305.554 229.206 305.59 229.075 305.587L228.917 305.582C228.835 305.58 228.753 305.577 228.67 305.577C224.656 305.589 220.766 306.836 217.647 309.111C214.528 311.387 212.367 314.555 211.522 318.089C211.494 318.209 211.421 318.317 211.315 318.394C211.209 318.471 211.077 318.514 210.941 318.514H171.137C171.059 318.514 170.981 318.5 170.909 318.473C170.837 318.447 170.771 318.407 170.715 318.357C170.66 318.308 170.616 318.249 170.586 318.184C170.556 318.119 170.541 318.049 170.541 317.979C170.541 317.908 170.556 317.838 170.586 317.773C170.616 317.708 170.66 317.649 170.715 317.6C170.771 317.55 170.837 317.511 170.909 317.484C170.981 317.457 171.059 317.443 171.137 317.444H210.465C211.455 313.768 213.784 310.496 217.08 308.151C220.376 305.807 224.449 304.524 228.649 304.507C230.145 300.151 233.013 296.28 236.904 293.364C240.796 290.449 245.545 288.613 250.573 288.081C255.601 287.55 260.693 288.344 265.229 290.369C269.765 292.393 273.551 295.561 276.126 299.486C276.71 299.445 277.284 299.424 277.835 299.424C283.428 299.438 288.809 301.353 292.901 304.786C296.993 308.22 299.495 312.918 299.905 317.941C299.911 318.011 299.901 318.082 299.876 318.148C299.851 318.215 299.812 318.276 299.761 318.33C299.71 318.383 299.648 318.426 299.578 318.457C299.508 318.489 299.432 318.507 299.354 318.512C299.34 318.513 299.326 318.514 299.312 318.514Z" fill="#CBCBCB"/>
<path d="M292.243 325.374H194.804C194.726 325.374 194.648 325.36 194.576 325.334C194.504 325.307 194.438 325.267 194.383 325.218C194.327 325.168 194.283 325.109 194.254 325.044C194.224 324.979 194.208 324.909 194.208 324.839C194.208 324.768 194.224 324.699 194.254 324.634C194.283 324.569 194.327 324.509 194.383 324.46C194.438 324.41 194.504 324.371 194.576 324.344C194.648 324.317 194.726 324.303 194.804 324.304H292.243C292.4 324.304 292.552 324.36 292.663 324.46C292.774 324.561 292.837 324.697 292.837 324.839C292.837 324.981 292.774 325.117 292.663 325.217C292.552 325.317 292.4 325.374 292.243 325.374Z" fill="#CBCBCB"/>
<path d="M218.57 333.132H185.892C185.814 333.132 185.736 333.118 185.664 333.092C185.592 333.065 185.526 333.025 185.471 332.976C185.415 332.926 185.371 332.867 185.341 332.802C185.311 332.737 185.296 332.667 185.296 332.597C185.296 332.526 185.311 332.457 185.341 332.392C185.371 332.327 185.415 332.268 185.471 332.218C185.526 332.168 185.592 332.129 185.664 332.102C185.736 332.075 185.814 332.062 185.892 332.062H218.57C218.648 332.062 218.725 332.075 218.798 332.102C218.87 332.129 218.936 332.168 218.991 332.218C219.046 332.268 219.09 332.327 219.12 332.392C219.15 332.457 219.166 332.526 219.166 332.597C219.166 332.667 219.15 332.737 219.12 332.802C219.09 332.867 219.046 332.926 218.991 332.976C218.936 333.025 218.87 333.065 218.798 333.092C218.725 333.118 218.648 333.132 218.57 333.132V333.132Z" fill="#CBCBCB"/>
</g>
</g>
<defs>
<clipPath id="clip0_1_2">
<rect width="887.772" height="772.831" fill="white"/>
</clipPath>
<clipPath id="clip1_1_2">
<rect width="505" height="346" fill="white" transform="translate(43 62)"/>
</clipPath>
</defs>
</svg>
