<svg width="333" height="445" viewBox="0 0 333 445" fill="none" xmlns="http://www.w3.org/2000/svg">
<path d="M166.277 364.235C258.082 364.235 332.505 289.812 332.505 198.007C332.505 106.202 258.082 31.7789 166.277 31.7789C74.4716 31.7789 0.048645 106.202 0.048645 198.007C0.048645 289.812 74.4716 364.235 166.277 364.235Z" fill="#3F3D56"/>
<path d="M61.6259 211.351C65.7543 206.408 70.9176 202.433 76.751 199.705C82.5844 196.977 88.9457 195.563 95.3855 195.563C101.825 195.563 108.187 196.977 114.02 199.705C119.853 202.433 125.017 206.408 129.145 211.351C136.209 204.607 141.092 195.902 143.163 186.358C145.235 176.814 144.401 166.868 140.769 157.803C137.136 148.737 130.872 140.967 122.783 135.494C114.694 130.021 105.152 127.096 95.3855 127.096C85.6192 127.096 76.0767 130.021 67.9879 135.494C59.8992 140.967 53.6348 148.737 50.0024 157.803C46.3699 166.868 45.5358 176.814 47.6075 186.358C49.6792 195.902 54.5617 204.607 61.6259 211.351V211.351Z" fill="white"/>
<path d="M193.631 211.351C197.759 206.408 202.922 202.433 208.756 199.705C214.589 196.977 220.95 195.563 227.39 195.563C233.83 195.563 240.191 196.977 246.025 199.705C251.858 202.433 257.021 206.408 261.15 211.351C268.214 204.607 273.096 195.902 275.168 186.358C277.24 176.814 276.406 166.868 272.773 157.803C269.141 148.737 262.876 140.967 254.788 135.494C246.699 130.021 237.156 127.096 227.39 127.096C217.624 127.096 208.081 130.021 199.993 135.494C191.904 140.967 185.64 148.737 182.007 157.803C178.375 166.868 177.54 176.814 179.612 186.358C181.684 195.902 186.567 204.607 193.631 211.351Z" fill="white"/>
<path d="M78.7074 176.157C87.9956 176.157 95.5253 168.627 95.5253 159.339C95.5253 150.051 87.9956 142.521 78.7074 142.521C69.4191 142.521 61.8895 150.051 61.8895 159.339C61.8895 168.627 69.4191 176.157 78.7074 176.157Z" fill="#3F3D56"/>
<path d="M210.707 176.157C219.996 176.157 227.525 168.627 227.525 159.339C227.525 150.051 219.996 142.521 210.707 142.521C201.419 142.521 193.89 150.051 193.89 159.339C193.89 168.627 201.419 176.157 210.707 176.157Z" fill="#3F3D56"/>
<path d="M46.4948 259.12C57.2954 259.12 66.051 250.365 66.051 239.564C66.051 228.764 57.2954 220.008 46.4948 220.008C35.6942 220.008 26.9385 228.764 26.9385 239.564C26.9385 250.365 35.6942 259.12 46.4948 259.12Z" fill="#FF6584"/>
<path d="M271.392 259.12C282.192 259.12 290.948 250.365 290.948 239.564C290.948 228.764 282.192 220.008 271.392 220.008C260.591 220.008 251.836 228.764 251.836 239.564C251.836 250.365 260.591 259.12 271.392 259.12Z" fill="#FF6584"/>
<path d="M158.943 200.451L144.276 264.009L168.721 239.564L158.943 200.451Z" fill="#FF6584"/>
<path d="M234.307 444.905L217.655 430.929L218.043 444.905H212.871L212.458 430.127L189.975 444.905H180.563L212.29 424.051L211.061 380.262L210.143 347.191L215.302 347.049L216.233 380.262L217.461 424.012L242.348 444.905H234.307Z" fill="#3F3D56"/>
<path d="M156.076 444.905L139.424 430.929L139.812 444.905H134.654L134.24 430.127L111.757 444.905H102.345L134.059 424.051L132.831 380.262L131.913 347.191L137.084 347.049L138.015 380.262L139.23 424.012L164.118 444.905H156.076Z" fill="#3F3D56"/>
<path d="M168.721 19.5562C164.16 19.5562 160.137 23.0992 157.446 28.5412C155.075 20.358 150.094 14.6672 144.276 14.6672C143.881 14.7065 143.488 14.7724 143.102 14.8644C140.866 6.12744 135.668 0 129.609 0C121.508 0 114.942 10.9446 114.942 24.4453C114.942 37.9461 121.508 48.8907 129.609 48.8907C130.004 48.8514 130.397 48.7855 130.783 48.6934C133.019 57.4304 138.217 63.5579 144.276 63.5579C148.837 63.5579 152.861 60.0149 155.551 54.5729C157.922 62.756 162.904 68.4469 168.721 68.4469C176.822 68.4469 183.389 57.5023 183.389 44.0015C183.389 30.5008 176.822 19.5562 168.721 19.5562Z" fill="#3F3D56"/>
</svg>
